<svg width="18" height="19" viewBox="0 0 18 19" fill="none" xmlns="http://www.w3.org/2000/svg">
<path d="M15.75 8.375H15V7.625C15 7.42609 14.921 7.23532 14.7803 7.09467C14.6397 6.95402 14.4489 6.875 14.25 6.875C14.0511 6.875 13.8603 6.95402 13.7197 7.09467C13.579 7.23532 13.5 7.42609 13.5 7.625V8.375H12.75C12.5511 8.375 12.3603 8.45402 12.2197 8.59467C12.079 8.73532 12 8.92609 12 9.125C12 9.32391 12.079 9.51468 12.2197 9.65533C12.3603 9.79598 12.5511 9.875 12.75 9.875H13.5V10.625C13.5 10.8239 13.579 11.0147 13.7197 11.1553C13.8603 11.296 14.0511 11.375 14.25 11.375C14.4489 11.375 14.6397 11.296 14.7803 11.1553C14.921 11.0147 15 10.8239 15 10.625V9.875H15.75C15.9489 9.875 16.1397 9.79598 16.2803 9.65533C16.421 9.51468 16.5 9.32391 16.5 9.125C16.5 8.92609 16.421 8.73532 16.2803 8.59467C16.1397 8.45402 15.9489 8.375 15.75 8.375ZM9.975 9.665C10.3752 9.3186 10.6962 8.89016 10.9162 8.40877C11.1361 7.92737 11.25 7.40428 11.25 6.875C11.25 5.88044 10.8549 4.92661 10.1517 4.22335C9.44839 3.52009 8.49456 3.125 7.5 3.125C6.50544 3.125 5.55161 3.52009 4.84835 4.22335C4.14509 4.92661 3.75 5.88044 3.75 6.875C3.74999 7.40428 3.86385 7.92737 4.08384 8.40877C4.30384 8.89016 4.62482 9.3186 5.025 9.665C3.9751 10.1404 3.08435 10.9081 2.45924 11.8764C1.83412 12.8447 1.5011 13.9725 1.5 15.125C1.5 15.3239 1.57902 15.5147 1.71967 15.6553C1.86032 15.796 2.05109 15.875 2.25 15.875C2.44891 15.875 2.63968 15.796 2.78033 15.6553C2.92098 15.5147 3 15.3239 3 15.125C3 13.9315 3.47411 12.7869 4.31802 11.943C5.16193 11.0991 6.30653 10.625 7.5 10.625C8.69347 10.625 9.83807 11.0991 10.682 11.943C11.5259 12.7869 12 13.9315 12 15.125C12 15.3239 12.079 15.5147 12.2197 15.6553C12.3603 15.796 12.5511 15.875 12.75 15.875C12.9489 15.875 13.1397 15.796 13.2803 15.6553C13.421 15.5147 13.5 15.3239 13.5 15.125C13.4989 13.9725 13.1659 12.8447 12.5408 11.8764C11.9157 10.9081 11.0249 10.1404 9.975 9.665ZM7.5 9.125C7.05499 9.125 6.61998 8.99304 6.24997 8.74581C5.87996 8.49857 5.59157 8.14717 5.42127 7.73604C5.25097 7.3249 5.20642 6.8725 5.29323 6.43605C5.38005 5.99959 5.59434 5.59868 5.90901 5.28401C6.22368 4.96934 6.62459 4.75505 7.06105 4.66823C7.4975 4.58142 7.9499 4.62597 8.36104 4.79627C8.77217 4.96657 9.12357 5.25496 9.37081 5.62497C9.61804 5.99498 9.75 6.42999 9.75 6.875C9.75 7.47174 9.51295 8.04403 9.09099 8.46599C8.66903 8.88795 8.09674 9.125 7.5 9.125Z" fill="white"/>
</svg>
