<svg width="24" height="24" viewBox="0 0 24 24" fill="none" xmlns="http://www.w3.org/2000/svg">
<path d="M12.9499 12L16.8249 6.575C17.0583 6.24167 17.0873 5.896 16.9119 5.538C16.7366 5.18 16.4409 5.00067 16.0249 5C15.8583 5 15.6999 5.03767 15.5499 5.113C15.3999 5.18833 15.2833 5.29233 15.1999 5.425L10.4999 12L15.1999 18.575C15.2833 18.7083 15.3999 18.8127 15.5499 18.888C15.6999 18.9633 15.8583 19.0007 16.0249 19C16.4249 19 16.7166 18.821 16.8999 18.463C17.0833 18.105 17.0583 17.759 16.8249 17.425L12.9499 12ZM6.99994 12L10.8749 6.575C11.1083 6.24167 11.1376 5.896 10.9629 5.538C10.7883 5.18 10.4919 5.00067 10.0739 5C9.90728 5 9.74894 5.03767 9.59894 5.113C9.44894 5.18833 9.33228 5.29233 9.24894 5.425L4.54994 12L9.24994 18.575C9.33328 18.7083 9.44994 18.8127 9.59994 18.888C9.74994 18.9633 9.90828 19.0007 10.0749 19C10.4749 19 10.7666 18.821 10.9499 18.463C11.1333 18.105 11.1083 17.759 10.8749 17.425L6.99994 12Z" fill="#8C8C8C"/>
</svg>
