<svg width="17" height="17" viewBox="0 0 17 17" fill="none" xmlns="http://www.w3.org/2000/svg">
<path d="M8.87004 5.078C9.0482 4.93347 9.27063 4.8546 9.50004 4.8546C9.72945 4.8546 9.95188 4.93347 10.13 5.078L10.207 5.146L11.853 6.793L11.922 6.869C12.0671 7.04731 12.1463 7.27015 12.1463 7.5C12.1463 7.72985 12.0671 7.95269 11.922 8.131L11.853 8.207L3.86304 16.197C3.68808 16.372 3.45445 16.476 3.2073 16.4887C2.96016 16.5014 2.71707 16.4221 2.52504 16.266L2.44904 16.197L0.80304 14.551C0.615569 14.3635 0.510254 14.1092 0.510254 13.844C0.510254 13.5788 0.615569 13.3245 0.80304 13.137L8.79304 5.147L8.87004 5.078ZM2.21704 13.844L3.15704 14.784L7.43804 10.5L6.50004 9.56L2.21704 13.844ZM11.72 9.72C11.8607 9.57955 12.0513 9.50066 12.25 9.50066C12.4488 9.50066 12.6394 9.57955 12.78 9.72L14.28 11.22C14.4125 11.3622 14.4846 11.5502 14.4812 11.7445C14.4778 11.9388 14.3991 12.1242 14.2617 12.2616C14.1242 12.399 13.9389 12.4777 13.7446 12.4812C13.5503 12.4846 13.3622 12.4125 13.22 12.28L11.72 10.78C11.5796 10.6394 11.5007 10.4488 11.5007 10.25C11.5007 10.0512 11.5796 9.86063 11.72 9.72ZM7.56004 8.5L8.50004 9.44L10.44 7.5L9.50004 6.56L7.56004 8.5ZM15.75 6.75C15.949 6.75 16.1397 6.82902 16.2804 6.96967C16.421 7.11032 16.5 7.30109 16.5 7.5C16.5 7.69891 16.421 7.88968 16.2804 8.03033C16.1397 8.17098 15.949 8.25 15.75 8.25H14.25C14.0511 8.25 13.8604 8.17098 13.7197 8.03033C13.5791 7.88968 13.5 7.69891 13.5 7.5C13.5 7.30109 13.5791 7.11032 13.7197 6.96967C13.8604 6.82902 14.0511 6.75 14.25 6.75H15.75ZM4.72004 2.72C4.86067 2.57955 5.05129 2.50066 5.25004 2.50066C5.44879 2.50066 5.63942 2.57955 5.78004 2.72L7.28004 4.22C7.35373 4.28866 7.41283 4.37146 7.45382 4.46346C7.49481 4.55546 7.51686 4.65477 7.51863 4.75548C7.52041 4.85618 7.50188 4.95621 7.46416 5.0496C7.42644 5.14299 7.3703 5.22782 7.29908 5.29904C7.22786 5.37026 7.14303 5.4264 7.04964 5.46412C6.95625 5.50184 6.85622 5.52037 6.75552 5.51859C6.65482 5.51681 6.5555 5.49477 6.4635 5.45378C6.3715 5.41279 6.2887 5.35369 6.22004 5.28L4.72004 3.78C4.57959 3.63937 4.5007 3.44875 4.5007 3.25C4.5007 3.05125 4.57959 2.86063 4.72004 2.72ZM13.22 2.72C13.3622 2.58752 13.5503 2.5154 13.7446 2.51883C13.9389 2.52225 14.1242 2.60097 14.2617 2.73838C14.3991 2.87579 14.4778 3.06118 14.4812 3.25548C14.4846 3.44978 14.4125 3.63783 14.28 3.78L12.78 5.28C12.6379 5.41248 12.4498 5.4846 12.2555 5.48117C12.0612 5.47775 11.8758 5.39903 11.7384 5.26162C11.601 5.12421 11.5223 4.93882 11.5189 4.74452C11.5154 4.55022 11.5876 4.36217 11.72 4.22L13.22 2.72ZM9.50004 0.5C9.69895 0.5 9.88972 0.579018 10.0304 0.71967C10.171 0.860322 10.25 1.05109 10.25 1.25V2.75C10.25 2.94891 10.171 3.13968 10.0304 3.28033C9.88972 3.42098 9.69895 3.5 9.50004 3.5C9.30113 3.5 9.11036 3.42098 8.96971 3.28033C8.82906 3.13968 8.75004 2.94891 8.75004 2.75V1.25C8.75004 1.05109 8.82906 0.860322 8.96971 0.71967C9.11036 0.579018 9.30113 0.5 9.50004 0.5Z" fill="#757575"/>
</svg>
