<svg width="121" height="120" viewBox="0 0 121 120" fill="none" xmlns="http://www.w3.org/2000/svg">
<path d="M60.4963 3.75C42.1063 3.75 27.9237 9.9525 18.3612 20.3363C8.8475 30.6675 4.25 44.7675 4.25 59.9963C4.25 70.3838 6.3875 80.2463 10.7675 88.7438C12.0354 86.2233 13.8069 83.9897 15.9725 82.1813C13.1788 75.6 11.75 68.0775 11.75 60C11.75 46.2375 15.8975 34.0875 23.8813 25.4212C31.8125 16.8 43.88 11.25 60.4963 11.25C77.1125 11.25 89.1763 16.8 97.1113 25.4175C105.095 34.0837 109.243 46.23 109.243 59.9925C109.243 73.755 105.095 85.905 97.1113 94.575C89.1763 103.192 77.1125 108.743 60.4963 108.743C59.3112 108.743 58.1488 108.714 57.0088 108.656C56.8106 108.839 56.6028 109.01 56.3862 109.17C56.7363 110.321 56.8351 111.534 56.676 112.726C56.5168 113.918 56.1034 115.062 55.4637 116.081C57.1037 116.186 58.7812 116.24 60.4963 116.243C78.8862 116.243 93.0687 110.04 102.627 99.6562C112.141 89.325 116.743 75.225 116.743 59.9963C116.743 44.7675 112.137 30.6675 102.627 20.3363C93.065 9.9525 78.8862 3.75 60.5 3.75" fill="url(#paint0_linear_240_10006)"/>
<path d="M50.7088 115.613C51.43 115.191 52.024 114.583 52.4278 113.852C52.8316 113.121 53.0302 112.294 53.0025 111.459C52.9749 110.625 52.722 109.813 52.2706 109.11C51.8193 108.408 51.1863 107.84 50.4388 107.468L49.25 106.875H51.95C52.7865 106.875 53.5989 106.595 54.258 106.08C54.9171 105.565 55.3851 104.844 55.5875 104.033L55.8388 103.012C55.9471 102.581 55.9556 102.13 55.8636 101.695C55.7716 101.26 55.5815 100.851 55.3078 100.5C55.034 100.15 54.6839 99.866 54.284 99.671C53.8841 99.4759 53.4449 99.3747 53 99.375L54.2375 98.7562C54.9921 98.3775 55.6264 97.7964 56.0697 97.0779C56.513 96.3594 56.7478 95.5318 56.7478 94.6875C56.7478 93.8432 56.513 93.0156 56.0697 92.2971C55.6264 91.5786 54.9921 90.9975 54.2375 90.6188L53 90H59.5625C60.8057 90 61.998 89.5061 62.8771 88.6271C63.7561 87.748 64.25 86.5557 64.25 85.3125C64.25 84.0693 63.7561 82.877 62.8771 81.9979C61.998 81.1189 60.8057 80.625 59.5625 80.625H38V69.15C38 67.7178 37.4311 66.3443 36.4184 65.3316C35.4057 64.3189 34.0322 63.75 32.6 63.75C29.45 63.75 26.9563 66.4425 26.9113 69.5962C26.8363 74.7 26.1313 81.4575 23 82.5C11.75 86.25 8.00001 103.125 17.375 110.625C24.4625 116.299 31.5538 116.272 37.0625 116.25H48.365C49.22 116.25 50.0188 116.018 50.7088 115.613ZM31.0475 23.0475C32.5363 21.5625 36.6125 18.75 41.75 18.75C46.8875 18.75 50.9638 21.5625 52.4525 23.0475C52.8046 23.3996 53.0024 23.8771 53.0024 24.375C53.0024 24.8729 52.8046 25.3504 52.4525 25.7025C52.1004 26.0546 51.6229 26.2524 51.125 26.2524C50.6271 26.2524 50.1496 26.0546 49.7975 25.7025C48.785 24.69 45.6125 22.5 41.75 22.5C37.8875 22.5 34.7113 24.69 33.7025 25.7025C33.5282 25.8768 33.3212 26.0151 33.0934 26.1095C32.8657 26.2038 32.6215 26.2524 32.375 26.2524C32.1285 26.2524 31.8843 26.2038 31.6566 26.1095C31.4288 26.0151 31.2218 25.8768 31.0475 25.7025C30.8732 25.5282 30.7349 25.3212 30.6405 25.0934C30.5462 24.8657 30.4976 24.6215 30.4976 24.375C30.4976 24.1285 30.5462 23.8843 30.6405 23.6566C30.7349 23.4288 30.8732 23.2218 31.0475 23.0475ZM68.675 30.435C70.4375 28.965 75.2 26.25 81.125 26.25C87.05 26.25 91.8125 28.965 93.575 30.435C93.9434 30.7573 94.1712 31.2109 94.2096 31.6989C94.2481 32.1868 94.0942 32.6705 93.7808 33.0465C93.4675 33.4226 93.0195 33.6612 92.5326 33.7113C92.0457 33.7615 91.5584 33.6192 91.175 33.315C89.9375 32.2875 86 30 81.125 30C76.25 30 72.3125 32.2875 71.075 33.315C70.6916 33.6192 70.2043 33.7615 69.7174 33.7113C69.2305 33.6612 68.7825 33.4226 68.4692 33.0465C68.1558 32.6705 68.0019 32.1868 68.0404 31.6989C68.0788 31.2109 68.3066 30.7573 68.675 30.435ZM38 54.375C40.9837 54.375 43.8452 53.1897 45.955 51.08C48.0647 48.9702 49.25 46.1087 49.25 43.125C49.25 40.1413 48.0647 37.2798 45.955 35.17C43.8452 33.0603 40.9837 31.875 38 31.875C35.0163 31.875 32.1548 33.0603 30.0451 35.17C27.9353 37.2798 26.75 40.1413 26.75 43.125C26.75 46.1087 27.9353 48.9702 30.0451 51.08C32.1548 53.1897 35.0163 54.375 38 54.375Z" fill="url(#paint1_linear_240_10006)"/>
<path d="M90.5001 43.125C90.5001 46.1087 89.3148 48.9702 87.205 51.08C85.0952 53.1897 82.2337 54.375 79.2501 54.375C76.2664 54.375 73.4049 53.1897 71.2951 51.08C69.1853 48.9702 68.0001 46.1087 68.0001 43.125C68.0001 40.1413 69.1853 37.2798 71.2951 35.17C73.4049 33.0603 76.2664 31.875 79.2501 31.875C82.2337 31.875 85.0952 33.0603 87.205 35.17C89.3148 37.2798 90.5001 40.1413 90.5001 43.125ZM51.9013 73.9013C53.0662 72.7795 54.4803 71.9496 56.0277 71.4796C57.5751 71.0097 59.2118 70.913 60.8038 71.1975C65.3826 71.9775 67.2951 74.31 68.3488 76.5788C68.7741 77.4703 69.5339 78.158 70.4632 78.4926C71.3926 78.8272 72.4164 78.7816 73.3123 78.3658C74.2083 77.9499 74.904 77.1973 75.2483 76.2715C75.5926 75.3458 75.5578 74.3215 75.1513 73.4213C73.2201 69.2663 69.4288 65.0588 62.0713 63.8025C59.2967 63.3159 56.4462 63.4971 53.7556 64.3312C51.065 65.1652 48.6117 66.6281 46.5988 68.5988C45.9157 69.306 45.5377 70.2533 45.5463 71.2365C45.5548 72.2197 45.9492 73.1603 46.6445 73.8556C47.3398 74.5509 48.2803 74.9452 49.2636 74.9538C50.2468 74.9623 51.1941 74.5843 51.9013 73.9013Z" fill="url(#paint2_linear_240_10006)"/>
<defs>
<linearGradient id="paint0_linear_240_10006" x1="60.4963" y1="3.75" x2="60.4963" y2="116.243" gradientUnits="userSpaceOnUse">
<stop stop-color="#77AAFF"/>
<stop offset="1" stop-color="#448AFF"/>
</linearGradient>
<linearGradient id="paint1_linear_240_10006" x1="53.1385" y1="18.75" x2="53.1385" y2="116.253" gradientUnits="userSpaceOnUse">
<stop stop-color="#77AAFF"/>
<stop offset="1" stop-color="#448AFF"/>
</linearGradient>
<linearGradient id="paint2_linear_240_10006" x1="68.0231" y1="31.875" x2="68.0231" y2="78.7143" gradientUnits="userSpaceOnUse">
<stop stop-color="#77AAFF"/>
<stop offset="1" stop-color="#448AFF"/>
</linearGradient>
</defs>
</svg>
