<svg width="20" height="20" viewBox="0 0 20 20" fill="none" xmlns="http://www.w3.org/2000/svg">
<rect width="20" height="20" rx="4" fill="#448AFF"/>
<path d="M14.6663 8.66634C14.4895 8.66634 14.32 8.73658 14.1949 8.8616C14.0699 8.98663 13.9997 9.1562 13.9997 9.33301V11.5863L13.013 10.5997C12.6646 10.254 12.1938 10.0601 11.703 10.0601C11.2123 10.0601 10.7414 10.254 10.393 10.5997L9.92634 11.073L8.27301 9.41301C7.92462 9.06737 7.45376 8.87342 6.96301 8.87342C6.47226 8.87342 6.00139 9.06737 5.65301 9.41301L4.66634 10.4063V6.66634C4.66634 6.48953 4.73658 6.31996 4.8616 6.19494C4.98663 6.06991 5.1562 5.99967 5.33301 5.99967H10.6663C10.8432 5.99967 11.0127 5.92944 11.1377 5.80441C11.2628 5.67939 11.333 5.50982 11.333 5.33301C11.333 5.1562 11.2628 4.98663 11.1377 4.8616C11.0127 4.73658 10.8432 4.66634 10.6663 4.66634H5.33301C4.80257 4.66634 4.29387 4.87705 3.91879 5.25213C3.54372 5.6272 3.33301 6.13591 3.33301 6.66634V14.813C3.33476 15.304 3.53059 15.7744 3.87778 16.1216C4.22496 16.4688 4.69535 16.6646 5.18634 16.6663H13.4797C13.6603 16.6649 13.8399 16.638 14.013 16.5863C14.398 16.4784 14.7369 16.2471 14.9777 15.9279C15.2186 15.6088 15.3481 15.2195 15.3463 14.8197V9.33301C15.3464 9.24433 15.3287 9.15653 15.2943 9.07477C15.26 8.993 15.2097 8.91891 15.1464 8.85683C15.0831 8.79474 15.008 8.74592 14.9256 8.71321C14.8431 8.6805 14.755 8.66457 14.6663 8.66634ZM5.33301 15.333C5.1562 15.333 4.98663 15.2628 4.8616 15.1377C4.73658 15.0127 4.66634 14.8432 4.66634 14.6663V12.2863L6.59301 10.3597C6.69044 10.2628 6.82227 10.2084 6.95967 10.2084C7.09708 10.2084 7.22891 10.2628 7.32634 10.3597L12.3063 15.333H5.33301ZM13.9997 14.6663C13.9954 14.7954 13.9537 14.9205 13.8797 15.0263L10.8663 11.9997L11.3397 11.533C11.3875 11.4842 11.4445 11.4455 11.5075 11.419C11.5704 11.3926 11.638 11.3789 11.7063 11.3789C11.7746 11.3789 11.8422 11.3926 11.9052 11.419C11.9682 11.4455 12.0252 11.4842 12.073 11.533L13.9997 13.473V14.6663ZM15.9997 4.66634H15.333V3.99967C15.333 3.82286 15.2628 3.65329 15.1377 3.52827C15.0127 3.40325 14.8432 3.33301 14.6663 3.33301C14.4895 3.33301 14.32 3.40325 14.1949 3.52827C14.0699 3.65329 13.9997 3.82286 13.9997 3.99967V4.66634H13.333C13.1562 4.66634 12.9866 4.73658 12.8616 4.8616C12.7366 4.98663 12.6663 5.1562 12.6663 5.33301C12.6663 5.50982 12.7366 5.67939 12.8616 5.80441C12.9866 5.92944 13.1562 5.99967 13.333 5.99967H13.9997V6.66634C13.9997 6.84315 14.0699 7.01272 14.1949 7.13775C14.32 7.26277 14.4895 7.33301 14.6663 7.33301C14.8432 7.33301 15.0127 7.26277 15.1377 7.13775C15.2628 7.01272 15.333 6.84315 15.333 6.66634V5.99967H15.9997C16.1765 5.99967 16.3461 5.92944 16.4711 5.80441C16.5961 5.67939 16.6663 5.50982 16.6663 5.33301C16.6663 5.1562 16.5961 4.98663 16.4711 4.8616C16.3461 4.73658 16.1765 4.66634 15.9997 4.66634Z" fill="white"/>
</svg>
