<svg width="20" height="20" viewBox="0 0 20 20" fill="none" xmlns="http://www.w3.org/2000/svg">
<path d="M10.0919 12.8252L6.85852 16.0586C6.46705 16.4364 5.94424 16.6475 5.40019 16.6475C4.85614 16.6475 4.33332 16.4364 3.94186 16.0586C3.74986 15.8673 3.59752 15.6401 3.49357 15.3898C3.38962 15.1396 3.33611 14.8712 3.33611 14.6002C3.33611 14.3293 3.38962 14.0609 3.49357 13.8107C3.59752 13.5604 3.74986 13.3331 3.94186 13.1419L7.17519 9.90858C7.33211 9.75166 7.42027 9.53883 7.42027 9.31691C7.42027 9.09499 7.33211 8.88216 7.17519 8.72524C7.01827 8.56832 6.80544 8.48016 6.58352 8.48016C6.3616 8.48016 6.14878 8.56832 5.99186 8.72524L2.75852 11.9669C2.10715 12.6759 1.75487 13.6091 1.77525 14.5717C1.79563 15.5343 2.18709 16.4518 2.86788 17.1325C3.54868 17.8133 4.46616 18.2048 5.42873 18.2252C6.3913 18.2456 7.32453 17.8933 8.03352 17.2419L11.2752 14.0086C11.4321 13.8517 11.5203 13.6388 11.5203 13.4169C11.5203 13.195 11.4321 12.9822 11.2752 12.8252C11.1183 12.6683 10.9054 12.5802 10.6835 12.5802C10.4616 12.5802 10.2488 12.6683 10.0919 12.8252ZM17.2419 2.75857C16.5408 2.06191 15.5927 1.6709 14.6044 1.6709C13.616 1.6709 12.6679 2.06191 11.9669 2.75857L8.72519 5.99191C8.64749 6.06961 8.58586 6.16185 8.54381 6.26337C8.50176 6.36489 8.48011 6.47369 8.48011 6.58358C8.48011 6.69346 8.50176 6.80226 8.54381 6.90378C8.58586 7.0053 8.64749 7.09754 8.72519 7.17524C8.80289 7.25294 8.89513 7.31457 8.99665 7.35662C9.09817 7.39867 9.20697 7.42032 9.31686 7.42032C9.42674 7.42032 9.53555 7.39867 9.63706 7.35662C9.73858 7.31457 9.83082 7.25294 9.90852 7.17524L13.1419 3.94191C13.5333 3.5641 14.0561 3.35296 14.6002 3.35296C15.1442 3.35296 15.6671 3.5641 16.0585 3.94191C16.2505 4.13315 16.4029 4.36042 16.5068 4.61067C16.6108 4.86093 16.6643 5.12925 16.6643 5.40024C16.6643 5.67123 16.6108 5.93955 16.5068 6.18981C16.4029 6.44007 16.2505 6.66734 16.0585 6.85857L12.8252 10.0919C12.7471 10.1694 12.6851 10.2615 12.6428 10.3631C12.6005 10.4646 12.5787 10.5736 12.5787 10.6836C12.5787 10.7936 12.6005 10.9025 12.6428 11.0041C12.6851 11.1056 12.7471 11.1978 12.8252 11.2752C12.9027 11.3533 12.9948 11.4153 13.0964 11.4577C13.1979 11.5 13.3068 11.5217 13.4169 11.5217C13.5269 11.5217 13.6358 11.5 13.7373 11.4577C13.8389 11.4153 13.9311 11.3533 14.0085 11.2752L17.2419 8.03358C17.9385 7.33256 18.3295 6.38439 18.3295 5.39608C18.3295 4.40776 17.9385 3.45959 17.2419 2.75857ZM7.35852 12.6419C7.43639 12.7191 7.52874 12.7802 7.63027 12.8217C7.7318 12.8632 7.84052 12.8842 7.95019 12.8836C8.05986 12.8842 8.16858 12.8632 8.27011 12.8217C8.37164 12.7802 8.46399 12.7191 8.54186 12.6419L12.6419 8.54191C12.7988 8.38499 12.8869 8.17216 12.8869 7.95024C12.8869 7.72832 12.7988 7.51549 12.6419 7.35857C12.4849 7.20165 12.2721 7.1135 12.0502 7.1135C11.8283 7.1135 11.6154 7.20165 11.4585 7.35857L7.35852 11.4586C7.28042 11.536 7.21842 11.6282 7.17611 11.7298C7.13381 11.8313 7.11202 11.9402 7.11202 12.0502C7.11202 12.1603 7.13381 12.2692 7.17611 12.3707C7.21842 12.4723 7.28042 12.5644 7.35852 12.6419Z" fill="black"/>
</svg>
