<svg width="16" height="17" viewBox="0 0 16 17" fill="none" xmlns="http://www.w3.org/2000/svg">
<path d="M8.39337 9.16543L6.86004 10.6921C6.79755 10.7541 6.74796 10.8278 6.71411 10.909C6.68027 10.9903 6.66284 11.0774 6.66284 11.1654C6.66284 11.2534 6.68027 11.3406 6.71411 11.4218C6.74796 11.5031 6.79755 11.5768 6.86004 11.6388C6.92202 11.7013 6.99575 11.7508 7.07699 11.7847C7.15823 11.8185 7.24537 11.836 7.33337 11.836C7.42138 11.836 7.50852 11.8185 7.58976 11.7847C7.671 11.7508 7.74473 11.7013 7.80671 11.6388L10.4734 8.9721C10.5341 8.9087 10.5816 8.83393 10.6134 8.7521C10.6801 8.58979 10.6801 8.40774 10.6134 8.24543C10.5816 8.1636 10.5341 8.08883 10.4734 8.02543L7.80671 5.35876C7.74455 5.29661 7.67076 5.2473 7.58954 5.21366C7.50833 5.18002 7.42128 5.1627 7.33337 5.1627C7.24547 5.1627 7.15842 5.18002 7.07721 5.21366C6.99599 5.2473 6.9222 5.29661 6.86004 5.35876C6.79788 5.42092 6.74857 5.49472 6.71493 5.57593C6.68129 5.65715 6.66398 5.74419 6.66398 5.8321C6.66398 5.92 6.68129 6.00705 6.71493 6.08826C6.74857 6.16948 6.79788 6.24327 6.86004 6.30543L8.39337 7.8321H2.00004C1.82323 7.8321 1.65366 7.90234 1.52864 8.02736C1.40361 8.15238 1.33337 8.32195 1.33337 8.49876C1.33337 8.67558 1.40361 8.84515 1.52864 8.97017C1.65366 9.09519 1.82323 9.16543 2.00004 9.16543H8.39337ZM8.00004 1.8321C6.7541 1.82654 5.53154 2.17024 4.47102 2.82423C3.4105 3.47821 2.55448 4.4163 2.00004 5.5321C1.92048 5.69123 1.90738 5.87545 1.96364 6.04423C2.01991 6.21301 2.14091 6.35253 2.30004 6.4321C2.45917 6.51166 2.64339 6.52476 2.81217 6.46849C2.98096 6.41223 3.12048 6.29123 3.20004 6.1321C3.6215 5.28098 4.2626 4.55784 5.05707 4.03742C5.85155 3.517 6.77059 3.21818 7.71921 3.17183C8.66783 3.12548 9.61162 3.33328 10.4531 3.77377C11.2945 4.21426 12.003 4.87145 12.5054 5.67743C13.0079 6.48341 13.286 7.40893 13.311 8.35835C13.336 9.30778 13.107 10.2467 12.6477 11.078C12.1884 11.9093 11.5155 12.6029 10.6984 13.087C9.88133 13.5712 8.94979 13.8284 8.00004 13.8321C7.00596 13.8364 6.03081 13.5603 5.1865 13.0356C4.34219 12.5109 3.66294 11.7587 3.22671 10.8654C3.14714 10.7063 3.00762 10.5853 2.83884 10.529C2.67006 10.4728 2.48584 10.4859 2.32671 10.5654C2.16758 10.645 2.04657 10.7845 1.99031 10.9533C1.93405 11.1221 1.94714 11.3063 2.02671 11.4654C2.55526 12.5291 3.35839 13.4323 4.35302 14.0815C5.34765 14.7307 6.49767 15.1024 7.68412 15.1581C8.87057 15.2138 10.0504 14.9516 11.1015 14.3984C12.1526 13.8453 13.0368 13.0214 13.6628 12.012C14.2887 11.0025 14.6336 9.84419 14.6617 8.65677C14.6899 7.46934 14.4003 6.29596 13.8229 5.25799C13.2455 4.22001 12.4013 3.35514 11.3776 2.75283C10.3538 2.15053 9.1878 1.83266 8.00004 1.8321Z" fill="black"/>
</svg>
