<svg width="16" height="16" viewBox="0 0 16 16" fill="none" xmlns="http://www.w3.org/2000/svg">
<path d="M10.9999 7.9987C10.9999 7.54536 10.9599 7.10536 10.9066 6.66536H13.1599C13.2666 7.09203 13.3333 7.5387 13.3333 7.9987C13.3333 8.24536 13.3133 8.48536 13.2799 8.7187C13.7399 8.78536 14.1666 8.93203 14.5599 9.14536C14.6266 8.77203 14.6666 8.39203 14.6666 7.9987C14.6666 4.33203 11.6666 1.33203 7.99992 1.33203C4.31325 1.33203 1.33325 4.33203 1.33325 7.9987C1.33325 11.6654 4.33325 14.6654 7.99992 14.6654C8.39325 14.6654 8.77325 14.6254 9.14659 14.5587C8.82994 13.978 8.66485 13.3268 8.66659 12.6654C8.66659 12.472 8.68659 12.2854 8.71325 12.0987C8.49992 12.5187 8.26659 12.9254 7.99992 13.3054C7.44659 12.5054 6.99992 11.6187 6.72659 10.6654H9.20659C9.60698 9.9696 10.2091 9.4117 10.9333 9.06536C10.9733 8.71203 10.9999 8.3587 10.9999 7.9987ZM7.99992 2.68536C8.55325 3.48536 8.99992 4.3787 9.27325 5.33203H6.72659C6.99992 4.3787 7.44659 3.48536 7.99992 2.68536ZM2.83992 9.33203C2.73325 8.90536 2.66659 8.4587 2.66659 7.9987C2.66659 7.5387 2.73325 7.09203 2.83992 6.66536H5.09325C5.03992 7.10536 4.99992 7.54536 4.99992 7.9987C4.99992 8.45203 5.03992 8.89203 5.09325 9.33203H2.83992ZM3.38659 10.6654H5.33325C5.56659 11.4987 5.86659 12.2987 6.26659 13.0387C5.0521 12.6202 4.02944 11.7775 3.38659 10.6654ZM5.33325 5.33203H3.38659C4.02568 4.21672 5.04969 3.37286 6.26659 2.9587C5.86659 3.6987 5.56659 4.4987 5.33325 5.33203ZM9.55992 9.33203H6.43992C6.37325 8.89203 6.33325 8.45203 6.33325 7.9987C6.33325 7.54536 6.37325 7.0987 6.43992 6.66536H9.55992C9.61992 7.0987 9.66659 7.54536 9.66659 7.9987C9.66659 8.45203 9.61992 8.89203 9.55992 9.33203ZM9.72659 2.9587C10.9533 3.3787 11.9733 4.22536 12.6133 5.33203H10.6466C10.4376 4.50644 10.1287 3.70943 9.72659 2.9587ZM14.9999 11.4987L11.8333 14.6654L9.99992 12.6654L10.7733 11.892L11.8333 12.952L14.2266 10.5587L14.9999 11.4987Z" fill="#A9A9A9"/>
</svg>
