<svg width="16" height="16" viewBox="0 0 16 16" fill="none" xmlns="http://www.w3.org/2000/svg">
<path d="M9.21325 9.33203H6.43992C6.37325 8.89203 6.33325 8.45203 6.33325 7.9987C6.33325 7.54536 6.37325 7.0987 6.43992 6.66536H9.55992C9.61992 7.0987 9.66659 7.54536 9.66659 7.9987C9.66659 8.33203 9.63992 8.66536 9.59992 8.97203C9.99992 8.6387 10.4799 8.3787 10.9999 8.21203V7.9987C10.9999 7.54536 10.9599 7.10536 10.9066 6.66536H13.1599C13.2666 7.09203 13.3333 7.5387 13.3333 7.9987V8.1187C13.7999 8.23203 14.2333 8.4187 14.6333 8.66536C14.6666 8.45203 14.6666 8.22536 14.6666 7.9987C14.6666 4.33203 11.6666 1.33203 7.99992 1.33203C4.31325 1.33203 1.33325 4.33203 1.33325 7.9987C1.33325 11.6654 4.33325 14.6654 7.99992 14.6654C8.22659 14.6654 8.45325 14.6654 8.66659 14.632C8.39325 14.192 8.19325 13.6987 8.08659 13.1654C8.05992 13.212 8.03325 13.2587 7.99992 13.3054C7.44659 12.5054 6.99992 11.6187 6.72659 10.6654H8.33325C8.53992 10.1654 8.83992 9.7187 9.21325 9.33203ZM12.6133 5.33203H10.6466C10.4376 4.50644 10.1287 3.70943 9.72659 2.9587C10.9533 3.3787 11.9733 4.22536 12.6133 5.33203ZM7.99992 2.68536C8.55325 3.48536 8.99992 4.3787 9.27325 5.33203H6.72659C6.99992 4.3787 7.44659 3.48536 7.99992 2.68536ZM2.83992 9.33203C2.73325 8.90536 2.66659 8.4587 2.66659 7.9987C2.66659 7.5387 2.73325 7.09203 2.83992 6.66536H5.09325C5.03992 7.10536 4.99992 7.54536 4.99992 7.9987C4.99992 8.45203 5.03992 8.89203 5.09325 9.33203H2.83992ZM3.38659 10.6654H5.33325C5.56659 11.4987 5.86659 12.2987 6.26659 13.0387C5.0521 12.6202 4.02944 11.7775 3.38659 10.6654ZM5.33325 5.33203H3.38659C4.02568 4.21672 5.04969 3.37286 6.26659 2.9587C5.86659 3.6987 5.56659 4.4987 5.33325 5.33203ZM12.3333 9.33203C10.6666 9.33203 9.33325 10.6654 9.33325 12.332C9.33325 13.9987 10.6666 15.332 12.3333 15.332C13.9999 15.332 15.3333 13.9987 15.3333 12.332C15.3333 10.6654 13.9999 9.33203 12.3333 9.33203ZM12.3333 14.332C11.2266 14.332 10.3333 13.4387 10.3333 12.332C10.3333 11.9587 10.4333 11.612 10.6133 11.332L13.3333 14.052C13.0533 14.232 12.7066 14.332 12.3333 14.332ZM14.0533 13.332L11.3333 10.612C11.6133 10.432 11.9599 10.332 12.3333 10.332C13.4399 10.332 14.3333 11.2254 14.3333 12.332C14.3333 12.7054 14.2333 13.052 14.0533 13.332Z" fill="#A9A9A9"/>
</svg>
