<svg width="21" height="20" viewBox="0 0 21 20" fill="none" xmlns="http://www.w3.org/2000/svg">
<path fill-rule="evenodd" clip-rule="evenodd" d="M4.66667 2.5C4.22464 2.5 3.80072 2.67559 3.48816 2.98816C3.17559 3.30072 3 3.72464 3 4.16667V15.8333C3 16.2754 3.17559 16.6993 3.48816 17.0118C3.80072 17.3244 4.22464 17.5 4.66667 17.5H16.3333C16.7754 17.5 17.1993 17.3244 17.5118 17.0118C17.8244 16.6993 18 16.2754 18 15.8333V4.16667C18 3.72464 17.8244 3.30072 17.5118 2.98816C17.1993 2.67559 16.7754 2.5 16.3333 2.5H4.66667ZM4.66667 4.16667H16.3333V15.8333H4.66667V4.16667ZM14.625 8.1625C14.7046 8.08563 14.7681 7.99367 14.8118 7.892C14.8554 7.79033 14.8784 7.68098 14.8794 7.57033C14.8803 7.45968 14.8593 7.34995 14.8174 7.24754C14.7755 7.14512 14.7136 7.05208 14.6353 6.97384C14.5571 6.89559 14.464 6.83372 14.3616 6.79181C14.2592 6.74991 14.1495 6.72883 14.0388 6.72979C13.9282 6.73075 13.8188 6.75374 13.7172 6.79742C13.6155 6.84109 13.5235 6.90457 13.4467 6.98417L9.32167 11.1092L7.55417 9.34167C7.4768 9.26424 7.38493 9.20281 7.28382 9.16089C7.18271 9.11897 7.07434 9.09737 6.96488 9.09733C6.74382 9.09725 6.53178 9.18499 6.37542 9.34125C6.21905 9.49751 6.13116 9.70948 6.13108 9.93054C6.131 10.1516 6.21874 10.3636 6.375 10.52L8.67333 12.8183C8.75846 12.9035 8.85953 12.9711 8.97077 13.0172C9.08202 13.0632 9.20125 13.087 9.32167 13.087C9.44208 13.087 9.56132 13.0632 9.67256 13.0172C9.7838 12.9711 9.88487 12.9035 9.97 12.8183L14.625 8.1625Z" fill="black"/>
</svg>
