<svg width="16" height="17" viewBox="0 0 16 17" fill="none" xmlns="http://www.w3.org/2000/svg">
<path d="M8.37004 5.078C8.5482 4.93347 8.77063 4.8546 9.00004 4.8546C9.22945 4.8546 9.45188 4.93347 9.63004 5.078L9.70704 5.146L11.353 6.793L11.422 6.869C11.5671 7.04731 11.6463 7.27015 11.6463 7.5C11.6463 7.72985 11.5671 7.95269 11.422 8.131L11.353 8.207L3.36304 16.197C3.18808 16.372 2.95445 16.476 2.7073 16.4887C2.46016 16.5014 2.21707 16.4221 2.02504 16.266L1.94904 16.197L0.30304 14.551C0.115569 14.3635 0.0102539 14.1092 0.0102539 13.844C0.0102539 13.5788 0.115569 13.3245 0.30304 13.137L8.29304 5.147L8.37004 5.078ZM1.71704 13.844L2.65704 14.784L6.93804 10.5L6.00004 9.56L1.71704 13.844ZM11.22 9.72C11.3607 9.57955 11.5513 9.50066 11.75 9.50066C11.9488 9.50066 12.1394 9.57955 12.28 9.72L13.78 11.22C13.9125 11.3622 13.9846 11.5502 13.9812 11.7445C13.9778 11.9388 13.8991 12.1242 13.7617 12.2616C13.6242 12.399 13.4389 12.4777 13.2446 12.4812C13.0503 12.4846 12.8622 12.4125 12.72 12.28L11.22 10.78C11.0796 10.6394 11.0007 10.4488 11.0007 10.25C11.0007 10.0512 11.0796 9.86063 11.22 9.72ZM7.06004 8.5L8.00004 9.44L9.94004 7.5L9.00004 6.56L7.06004 8.5ZM15.25 6.75C15.449 6.75 15.6397 6.82902 15.7804 6.96967C15.921 7.11032 16 7.30109 16 7.5C16 7.69891 15.921 7.88968 15.7804 8.03033C15.6397 8.17098 15.449 8.25 15.25 8.25H13.75C13.5511 8.25 13.3604 8.17098 13.2197 8.03033C13.0791 7.88968 13 7.69891 13 7.5C13 7.30109 13.0791 7.11032 13.2197 6.96967C13.3604 6.82902 13.5511 6.75 13.75 6.75H15.25ZM4.22004 2.72C4.36067 2.57955 4.55129 2.50066 4.75004 2.50066C4.94879 2.50066 5.13942 2.57955 5.28004 2.72L6.78004 4.22C6.85373 4.28866 6.91283 4.37146 6.95382 4.46346C6.99481 4.55546 7.01686 4.65477 7.01863 4.75548C7.02041 4.85618 7.00188 4.95621 6.96416 5.0496C6.92644 5.14299 6.8703 5.22782 6.79908 5.29904C6.72786 5.37026 6.64303 5.4264 6.54964 5.46412C6.45625 5.50184 6.35622 5.52037 6.25552 5.51859C6.15482 5.51681 6.0555 5.49477 5.9635 5.45378C5.8715 5.41279 5.7887 5.35369 5.72004 5.28L4.22004 3.78C4.07959 3.63937 4.0007 3.44875 4.0007 3.25C4.0007 3.05125 4.07959 2.86063 4.22004 2.72ZM12.72 2.72C12.8622 2.58752 13.0503 2.5154 13.2446 2.51883C13.4389 2.52225 13.6242 2.60097 13.7617 2.73838C13.8991 2.87579 13.9778 3.06118 13.9812 3.25548C13.9846 3.44978 13.9125 3.63783 13.78 3.78L12.28 5.28C12.1379 5.41248 11.9498 5.4846 11.7555 5.48117C11.5612 5.47775 11.3758 5.39903 11.2384 5.26162C11.101 5.12421 11.0223 4.93882 11.0189 4.74452C11.0154 4.55022 11.0876 4.36217 11.22 4.22L12.72 2.72ZM9.00004 0.5C9.19895 0.5 9.38972 0.579018 9.53037 0.71967C9.67102 0.860322 9.75004 1.05109 9.75004 1.25V2.75C9.75004 2.94891 9.67102 3.13968 9.53037 3.28033C9.38972 3.42098 9.19895 3.5 9.00004 3.5C8.80113 3.5 8.61036 3.42098 8.46971 3.28033C8.32906 3.13968 8.25004 2.94891 8.25004 2.75V1.25C8.25004 1.05109 8.32906 0.860322 8.46971 0.71967C8.61036 0.579018 8.80113 0.5 9.00004 0.5Z" fill="black"/>
</svg>
