<svg width="16" height="17" viewBox="0 0 16 17" fill="none" xmlns="http://www.w3.org/2000/svg">
<path d="M7.99995 1.83203C6.70694 1.83449 5.44254 2.21291 4.36077 2.92119C3.279 3.62948 2.42655 4.63706 1.90725 5.82121C1.38794 7.00536 1.2242 8.31498 1.43597 9.59053C1.64774 10.8661 2.22587 12.0525 3.09995 13.0054C3.72423 13.6821 4.48191 14.2221 5.32524 14.5915C6.16857 14.9609 7.07927 15.1516 7.99995 15.1516C8.92063 15.1516 9.83133 14.9609 10.6747 14.5915C11.518 14.2221 12.2757 13.6821 12.9 13.0054C13.774 12.0525 14.3522 10.8661 14.5639 9.59053C14.7757 8.31498 14.612 7.00536 14.0927 5.82121C13.5734 4.63706 12.7209 3.62948 11.6391 2.92119C10.5574 2.21291 9.29297 1.83449 7.99995 1.83203ZM7.99995 13.832C6.61893 13.8299 5.29256 13.2922 4.29995 12.332C4.60131 11.5984 5.11397 10.9709 5.77279 10.5293C6.4316 10.0877 7.20682 9.8519 7.99995 9.8519C8.79308 9.8519 9.5683 10.0877 10.2271 10.5293C10.8859 10.9709 11.3986 11.5984 11.7 12.332C10.7073 13.2922 9.38097 13.8299 7.99995 13.832ZM6.66662 7.16536C6.66662 6.90166 6.74482 6.64387 6.89132 6.4246C7.03783 6.20534 7.24607 6.03444 7.48971 5.93353C7.73334 5.83261 8.00143 5.8062 8.26007 5.85765C8.51871 5.9091 8.75629 6.03609 8.94276 6.22256C9.12923 6.40903 9.25622 6.6466 9.30766 6.90524C9.35911 7.16389 9.33271 7.43197 9.23179 7.67561C9.13087 7.91924 8.95998 8.12748 8.74071 8.27399C8.52145 8.4205 8.26366 8.4987 7.99995 8.4987C7.64633 8.4987 7.30719 8.35822 7.05714 8.10817C6.80709 7.85813 6.66662 7.51899 6.66662 7.16536ZM12.6066 11.1654C12.011 10.1465 11.0942 9.35405 9.99995 8.91203C10.3394 8.52714 10.5606 8.05247 10.6369 7.54499C10.7133 7.03751 10.6416 6.51877 10.4305 6.05103C10.2193 5.58329 9.87767 5.1864 9.44656 4.90801C9.01544 4.62961 8.51314 4.48153 7.99995 4.48153C7.48676 4.48153 6.98446 4.62961 6.55335 4.90801C6.12223 5.1864 5.7806 5.58329 5.56945 6.05103C5.3583 6.51877 5.28661 7.03751 5.36297 7.54499C5.43933 8.05247 5.66051 8.52714 5.99995 8.91203C4.90568 9.35405 3.98893 10.1465 3.39328 11.1654C2.91858 10.3568 2.66776 9.43634 2.66662 8.4987C2.66662 7.08421 3.22852 5.72766 4.22872 4.72746C5.22891 3.72727 6.58546 3.16536 7.99995 3.16536C9.41444 3.16536 10.771 3.72727 11.7712 4.72746C12.7714 5.72766 13.3333 7.08421 13.3333 8.4987C13.3321 9.43634 13.0813 10.3568 12.6066 11.1654Z" fill="black"/>
</svg>
