<svg width="32" height="32" viewBox="0 0 32 32" fill="none" xmlns="http://www.w3.org/2000/svg">
<rect width="32" height="32" rx="16" fill="#EFEFEF"/>
<path d="M21.9997 17.3335C21.8229 17.3335 21.6533 17.4037 21.5283 17.5288C21.4032 17.6538 21.333 17.8234 21.333 18.0002V20.6668C21.333 20.8436 21.2628 21.0132 21.1377 21.1382C21.0127 21.2633 20.8432 21.3335 20.6663 21.3335H11.333C11.1562 21.3335 10.9866 21.2633 10.8616 21.1382C10.7366 21.0132 10.6663 20.8436 10.6663 20.6668V18.0002C10.6663 17.8234 10.5961 17.6538 10.4711 17.5288C10.3461 17.4037 10.1765 17.3335 9.99967 17.3335C9.82286 17.3335 9.65329 17.4037 9.52827 17.5288C9.40325 17.6538 9.33301 17.8234 9.33301 18.0002V20.6668C9.33301 21.1973 9.54372 21.706 9.91879 22.081C10.2939 22.4561 10.8026 22.6668 11.333 22.6668H20.6663C21.1968 22.6668 21.7055 22.4561 22.0806 22.081C22.4556 21.706 22.6663 21.1973 22.6663 20.6668V18.0002C22.6663 17.8234 22.5961 17.6538 22.4711 17.5288C22.3461 17.4037 22.1765 17.3335 21.9997 17.3335ZM15.5263 18.4735C15.5897 18.5342 15.6645 18.5818 15.7463 18.6135C15.8261 18.6488 15.9124 18.667 15.9997 18.667C16.0869 18.667 16.1732 18.6488 16.253 18.6135C16.3348 18.5818 16.4096 18.5342 16.473 18.4735L19.1397 15.8068C19.2652 15.6813 19.3357 15.511 19.3357 15.3335C19.3357 15.156 19.2652 14.9857 19.1397 14.8602C19.0141 14.7346 18.8439 14.6641 18.6663 14.6641C18.4888 14.6641 18.3185 14.7346 18.193 14.8602L16.6663 16.3935V10.0002C16.6663 9.82335 16.5961 9.65378 16.4711 9.52876C16.3461 9.40373 16.1765 9.3335 15.9997 9.3335C15.8229 9.3335 15.6533 9.40373 15.5283 9.52876C15.4032 9.65378 15.333 9.82335 15.333 10.0002V16.3935L13.8063 14.8602C13.7442 14.798 13.6704 14.7487 13.5892 14.7151C13.508 14.6814 13.4209 14.6641 13.333 14.6641C13.2451 14.6641 13.1581 14.6814 13.0768 14.7151C12.9956 14.7487 12.9218 14.798 12.8597 14.8602C12.7975 14.9223 12.7482 14.9961 12.7146 15.0773C12.6809 15.1585 12.6636 15.2456 12.6636 15.3335C12.6636 15.4214 12.6809 15.5084 12.7146 15.5897C12.7482 15.6709 12.7975 15.7447 12.8597 15.8068L15.5263 18.4735Z" fill="#8C8C8C"/>
</svg>
