<svg width="24" height="24" viewBox="0 0 24 24" fill="none" xmlns="http://www.w3.org/2000/svg">
<path d="M12.7273 10.1702L19.6364 4.28622C20.1212 3.86593 20.1212 3.2355 19.6364 2.81522C19.1515 2.39493 18.4242 2.39493 17.9394 2.81522L12 7.96373L6.06061 2.81522C5.81818 2.60507 5.57576 2.5 5.21212 2.5C4.48485 2.5 4 2.92029 4 3.55072C4 3.86593 4.12121 4.07608 4.36364 4.28622L11.2727 10.2753C11.5152 10.5905 12.2424 10.5905 12.7273 10.1702Z" fill="#448AFF"/>
<path d="M12.6364 16.2115L18.6818 11.0629C19.1061 10.6952 19.1061 10.1436 18.6818 9.77581C18.2576 9.40806 17.6212 9.40806 17.197 9.77581L12 14.2808L6.80303 9.77581C6.59091 9.59194 6.37879 9.5 6.06061 9.5C5.42424 9.5 5 9.86775 5 10.4194C5 10.6952 5.10606 10.8791 5.31818 11.0629L11.3636 16.3034C11.5758 16.5792 12.2121 16.5792 12.6364 16.2115Z" fill="#8AB6FF"/>
<path d="M12.5455 21.2527L17.7273 16.8397C18.0909 16.5244 18.0909 16.0516 17.7273 15.7364C17.3636 15.4212 16.8182 15.4212 16.4545 15.7364L12 19.5978L7.54545 15.7364C7.36364 15.5788 7.18182 15.5 6.90909 15.5C6.36364 15.5 6 15.8152 6 16.288C6 16.5244 6.09091 16.6821 6.27273 16.8397L11.4545 21.3315C11.6364 21.5679 12.1818 21.5679 12.5455 21.2527Z" fill="#C6DBFF"/>
</svg>
