<svg width="10" height="10" viewBox="0 0 10 10" fill="none" xmlns="http://www.w3.org/2000/svg">
<path d="M2.84167 1.66667H9.16667C9.38768 1.66667 9.59964 1.57887 9.75592 1.42259C9.9122 1.26631 10 1.05435 10 0.833333C10 0.61232 9.9122 0.400358 9.75592 0.244078C9.59964 0.0877975 9.38768 0 9.16667 0H0.833333C0.724436 0.00131666 0.616852 0.0239658 0.516667 0.0666666C0.313042 0.151229 0.151229 0.313042 0.0666666 0.516667C0.0239658 0.616852 0.00131666 0.724436 0 0.833333V9.16667C0 9.38768 0.0877975 9.59964 0.244078 9.75592C0.400358 9.9122 0.61232 10 0.833333 10C1.05435 10 1.26631 9.9122 1.42259 9.75592C1.57887 9.59964 1.66667 9.38768 1.66667 9.16667V2.84167L8.575 9.75833C8.65247 9.83644 8.74464 9.89844 8.84619 9.94074C8.94774 9.98305 9.05666 10.0048 9.16667 10.0048C9.27668 10.0048 9.3856 9.98305 9.48715 9.94074C9.5887 9.89844 9.68086 9.83644 9.75833 9.75833C9.83644 9.68086 9.89844 9.5887 9.94074 9.48715C9.98305 9.3856 10.0048 9.27668 10.0048 9.16667C10.0048 9.05666 9.98305 8.94774 9.94074 8.84619C9.89844 8.74464 9.83644 8.65247 9.75833 8.575L2.84167 1.66667Z" fill="#2B2B2B"/>
</svg>
