<svg width="19" height="18" viewBox="0 0 19 18" fill="none" xmlns="http://www.w3.org/2000/svg">
<path d="M13.5605 7.8105C14 7.371 14 6.6645 14 5.25C14 3.8355 14 3.129 13.5605 2.6895M13.5605 7.8105C13.121 8.25 12.4145 8.25 11 8.25H8C6.5855 8.25 5.879 8.25 5.4395 7.8105M13.5605 2.6895C13.121 2.25 12.4145 2.25 11 2.25H8C6.5855 2.25 5.879 2.25 5.4395 2.6895M5.4395 2.6895C5 3.129 5 3.8355 5 5.25C5 6.6645 5 7.371 5.4395 7.8105M10.25 5.25C10.25 5.44891 10.171 5.63968 10.0303 5.78033C9.88968 5.92098 9.69891 6 9.5 6C9.30109 6 9.11032 5.92098 8.96967 5.78033C8.82902 5.63968 8.75 5.44891 8.75 5.25C8.75 5.05109 8.82902 4.86032 8.96967 4.71967C9.11032 4.57902 9.30109 4.5 9.5 4.5C9.69891 4.5 9.88968 4.57902 10.0303 4.71967C10.171 4.86032 10.25 5.05109 10.25 5.25Z" stroke="#8C8C8C" stroke-width="1.5"/>
<path d="M14 4.5C13.4033 4.5 12.831 4.26295 12.409 3.84099C11.9871 3.41903 11.75 2.84674 11.75 2.25M14 6C13.4033 6 12.831 6.23705 12.409 6.65901C11.9871 7.08097 11.75 7.65326 11.75 8.25M5 4.5C5.59674 4.5 6.16903 4.26295 6.59099 3.84099C7.01295 3.41903 7.25 2.84674 7.25 2.25M5 6C5.59674 6 6.16903 6.23705 6.59099 6.65901C7.01295 7.08097 7.25 7.65326 7.25 8.25M4.25 15.291H5.945C6.7025 15.291 7.46975 15.3705 8.207 15.522C9.52334 15.7916 10.8775 15.8216 12.2045 15.6105C12.8555 15.5055 13.4945 15.3442 14.0735 15.0652C14.5955 14.8125 15.2352 14.4578 15.665 14.0595C16.094 13.662 16.541 13.0117 16.8575 12.5032C17.1305 12.0667 16.9985 11.532 16.568 11.2072C16.326 11.0316 16.0346 10.937 15.7355 10.937C15.4364 10.937 15.145 11.0316 14.903 11.2072L13.5477 12.231C13.0227 12.6285 12.449 12.9937 11.7657 13.1025C11.6832 13.1155 11.597 13.1273 11.507 13.1378M11.507 13.1378L11.4245 13.1467M11.507 13.1378C11.627 13.1052 11.7371 13.0434 11.8272 12.9578C11.9404 12.8601 12.0329 12.7407 12.0991 12.6067C12.1654 12.4727 12.204 12.3267 12.2128 12.1775C12.2217 12.0282 12.2004 11.8787 12.1504 11.7379C12.1004 11.597 12.0227 11.4675 11.9218 11.3572C11.824 11.2487 11.7102 11.1559 11.5843 11.082C9.4865 9.83025 6.22175 10.7835 4.25 12.1823M11.507 13.1378C11.4799 13.1438 11.4522 13.1468 11.4245 13.1467M11.4245 13.1467C10.9722 13.1921 10.5165 13.1931 10.064 13.1498" stroke="#8C8C8C" stroke-width="1.5" stroke-linecap="round"/>
<path d="M4.25 11.625C4.25 11.0037 3.74632 10.5 3.125 10.5C2.50368 10.5 2 11.0037 2 11.625V15.375C2 15.9963 2.50368 16.5 3.125 16.5C3.74632 16.5 4.25 15.9963 4.25 15.375V11.625Z" stroke="#8C8C8C" stroke-width="1.5"/>
</svg>
