<svg width="19" height="20" viewBox="0 0 19 20" fill="none" xmlns="http://www.w3.org/2000/svg">
<path d="M1.71503 9.41166L6.9916 7.49209L8.91117 2.21552C8.9555 2.09502 9.03573 1.99101 9.14103 1.91755C9.24633 1.84408 9.37163 1.80469 9.50003 1.80469C9.62843 1.80469 9.75373 1.84408 9.85904 1.91755C9.96434 1.99101 10.0446 2.09502 10.0889 2.21552L12.0085 7.49209L17.285 9.41166C17.4055 9.45599 17.5095 9.53621 17.583 9.64152C17.6565 9.74682 17.6959 9.87212 17.6959 10.0005C17.6959 10.1289 17.6565 10.2542 17.583 10.3595C17.5095 10.4648 17.4055 10.5451 17.285 10.5894L12.0085 12.5089L10.0889 17.7855C10.0446 17.906 9.96434 18.01 9.85904 18.0835C9.75373 18.157 9.62843 18.1964 9.50003 18.1964C9.37163 18.1964 9.24633 18.157 9.14103 18.0835C9.03573 18.01 8.9555 17.906 8.91117 17.7855L6.9916 12.5089L1.71503 10.5894C1.59453 10.5451 1.49052 10.4648 1.41706 10.3595C1.34359 10.2542 1.3042 10.1289 1.3042 10.0005C1.3042 9.87212 1.34359 9.74682 1.41706 9.64152C1.49052 9.53621 1.59453 9.45599 1.71503 9.41166Z" stroke="#8C8C8C" stroke-width="2" stroke-linecap="round" stroke-linejoin="round"/>
</svg>
