<svg width="20" height="20" viewBox="0 0 20 20" fill="none" xmlns="http://www.w3.org/2000/svg">
<path d="M10.0916 12.8262L6.85828 16.0596C6.46681 16.4374 5.94399 16.6485 5.39995 16.6485C4.8559 16.6485 4.33308 16.4374 3.94161 16.0596C3.74962 15.8683 3.59727 15.641 3.49332 15.3908C3.38937 15.1405 3.33586 14.8722 3.33586 14.6012C3.33586 14.3302 3.38937 14.0619 3.49332 13.8117C3.59727 13.5614 3.74962 13.3341 3.94161 13.1429L7.17494 9.90955C7.33186 9.75263 7.42002 9.5398 7.42002 9.31788C7.42002 9.09597 7.33186 8.88314 7.17494 8.72622C7.01802 8.5693 6.8052 8.48114 6.58328 8.48114C6.36136 8.48114 6.14853 8.5693 5.99161 8.72622L2.75828 11.9679C2.10691 12.6769 1.75463 13.6101 1.77501 14.5727C1.79539 15.5352 2.18685 16.4527 2.86764 17.1335C3.54843 17.8143 4.46591 18.2058 5.42848 18.2262C6.39105 18.2465 7.32428 17.8943 8.03328 17.2429L11.2749 14.0096C11.4319 13.8526 11.52 13.6398 11.52 13.4179C11.52 13.196 11.4319 12.9831 11.2749 12.8262C11.118 12.6693 10.9052 12.5811 10.6833 12.5811C10.4614 12.5811 10.2485 12.6693 10.0916 12.8262ZM17.2416 2.75955C16.5406 2.06289 15.5924 1.67188 14.6041 1.67188C13.6158 1.67188 12.6676 2.06289 11.9666 2.75955L8.72495 5.99289C8.64725 6.07058 8.58561 6.16283 8.54356 6.26434C8.50151 6.36586 8.47987 6.47467 8.47987 6.58455C8.47987 6.69443 8.50151 6.80324 8.54356 6.90476C8.58561 7.00628 8.64725 7.09852 8.72495 7.17622C8.80264 7.25392 8.89489 7.31555 8.9964 7.3576C9.09792 7.39965 9.20673 7.42129 9.31661 7.42129C9.4265 7.42129 9.5353 7.39965 9.63682 7.3576C9.73834 7.31555 9.83058 7.25392 9.90828 7.17622L13.1416 3.94288C13.5331 3.56507 14.0559 3.35393 14.5999 3.35393C15.144 3.35393 15.6668 3.56507 16.0583 3.94288C16.2503 4.13412 16.4026 4.36139 16.5066 4.61165C16.6105 4.86191 16.664 5.13023 16.664 5.40122C16.664 5.67221 16.6105 5.94053 16.5066 6.19079C16.4026 6.44104 16.2503 6.66831 16.0583 6.85955L12.8249 10.0929C12.7468 10.1704 12.6848 10.2625 12.6425 10.3641C12.6002 10.4656 12.5784 10.5745 12.5784 10.6846C12.5784 10.7946 12.6002 10.9035 12.6425 11.005C12.6848 11.1066 12.7468 11.1987 12.8249 11.2762C12.9024 11.3543 12.9946 11.4163 13.0961 11.4586C13.1977 11.5009 13.3066 11.5227 13.4166 11.5227C13.5266 11.5227 13.6355 11.5009 13.7371 11.4586C13.8386 11.4163 13.9308 11.3543 14.0083 11.2762L17.2416 8.03455C17.9383 7.33354 18.3293 6.38536 18.3293 5.39705C18.3293 4.40874 17.9383 3.46057 17.2416 2.75955ZM7.35828 12.6429C7.43614 12.7201 7.52849 12.7812 7.63002 12.8227C7.73155 12.8642 7.84027 12.8852 7.94994 12.8846C8.05962 12.8852 8.16834 12.8642 8.26987 12.8227C8.3714 12.7812 8.46375 12.7201 8.54161 12.6429L12.6416 8.54288C12.7985 8.38596 12.8867 8.17314 12.8867 7.95122C12.8867 7.7293 12.7985 7.51647 12.6416 7.35955C12.4847 7.20263 12.2719 7.11448 12.0499 7.11448C11.828 7.11448 11.6152 7.20263 11.4583 7.35955L7.35828 11.4596C7.28017 11.537 7.21818 11.6292 7.17587 11.7307C7.13356 11.8323 7.11178 11.9412 7.11178 12.0512C7.11178 12.1612 7.13356 12.2701 7.17587 12.3717C7.21818 12.4732 7.28017 12.5654 7.35828 12.6429Z" fill="#757575"/>
</svg>
