<svg width="20" height="20" viewBox="0 0 20 20" fill="none" xmlns="http://www.w3.org/2000/svg">
<path d="M10.2499 10.1846C10.6946 9.79975 11.0512 9.32371 11.2956 8.78882C11.5401 8.25394 11.6666 7.67273 11.6666 7.08464C11.6666 5.97957 11.2276 4.91976 10.4462 4.13836C9.66479 3.35696 8.60499 2.91797 7.49992 2.91797C6.39485 2.91797 5.33504 3.35696 4.55364 4.13836C3.77224 4.91976 3.33325 5.97957 3.33325 7.08464C3.33325 7.67273 3.45975 8.25394 3.70419 8.78882C3.94863 9.32371 4.30527 9.79975 4.74992 10.1846C3.58337 10.7129 2.59364 11.5659 1.89907 12.6418C1.2045 13.7176 0.834478 14.9707 0.833252 16.2513C0.833252 16.4723 0.921049 16.6843 1.07733 16.8406C1.23361 16.9968 1.44557 17.0846 1.66659 17.0846C1.8876 17.0846 2.09956 16.9968 2.25584 16.8406C2.41212 16.6843 2.49992 16.4723 2.49992 16.2513C2.49992 14.9252 3.0267 13.6535 3.96438 12.7158C4.90207 11.7781 6.17384 11.2513 7.49992 11.2513C8.826 11.2513 10.0978 11.7781 11.0355 12.7158C11.9731 13.6535 12.4999 14.9252 12.4999 16.2513C12.4999 16.4723 12.5877 16.6843 12.744 16.8406C12.9003 16.9968 13.1122 17.0846 13.3333 17.0846C13.5543 17.0846 13.7662 16.9968 13.9225 16.8406C14.0788 16.6843 14.1666 16.4723 14.1666 16.2513C14.1654 14.9707 13.7953 13.7176 13.1008 12.6418C12.4062 11.5659 11.4165 10.7129 10.2499 10.1846ZM7.49992 9.58464C7.00547 9.58464 6.52212 9.43801 6.11099 9.16331C5.69987 8.88861 5.37944 8.49816 5.19022 8.04134C5.001 7.58453 4.95149 7.08186 5.04796 6.59691C5.14442 6.11196 5.38252 5.6665 5.73215 5.31687C6.08178 4.96724 6.52724 4.72914 7.01219 4.63267C7.49715 4.53621 7.99981 4.58572 8.45663 4.77494C8.91344 4.96416 9.30389 5.28459 9.57859 5.69571C9.8533 6.10683 9.99992 6.59018 9.99992 7.08464C9.99992 7.74768 9.73653 8.38356 9.26769 8.8524C8.79884 9.32124 8.16296 9.58464 7.49992 9.58464ZM15.6166 9.8513C16.1499 9.25074 16.4983 8.50885 16.6198 7.71492C16.7412 6.92099 16.6307 6.10886 16.3014 5.3763C15.9721 4.64374 15.4381 4.02197 14.7636 3.58582C14.0892 3.14968 13.3031 2.91775 12.4999 2.91797C12.2789 2.91797 12.0669 3.00577 11.9107 3.16205C11.7544 3.31833 11.6666 3.53029 11.6666 3.7513C11.6666 3.97232 11.7544 4.18428 11.9107 4.34056C12.0669 4.49684 12.2789 4.58464 12.4999 4.58464C13.163 4.58464 13.7988 4.84803 14.2677 5.31687C14.7365 5.78571 14.9999 6.42159 14.9999 7.08464C14.9987 7.52234 14.8827 7.95206 14.6633 8.33082C14.4439 8.70959 14.129 9.02412 13.7499 9.24297C13.6264 9.31424 13.5232 9.41602 13.4502 9.53859C13.3773 9.66115 13.337 9.80039 13.3333 9.94297C13.3298 10.0844 13.3624 10.2245 13.428 10.3499C13.4936 10.4752 13.59 10.5818 13.7083 10.6596L14.0333 10.8763L14.1416 10.9346C15.1461 11.4111 15.9935 12.1646 16.5841 13.1066C17.1746 14.0485 17.4837 15.1396 17.4749 16.2513C17.4749 16.4723 17.5627 16.6843 17.719 16.8406C17.8753 16.9968 18.0872 17.0846 18.3083 17.0846C18.5293 17.0846 18.7412 16.9968 18.8975 16.8406C19.0538 16.6843 19.1416 16.4723 19.1416 16.2513C19.1484 14.9725 18.8281 13.7132 18.2111 12.593C17.5942 11.4729 16.701 10.5291 15.6166 9.8513Z" fill="#8C8C8C"/>
</svg>
