<svg width="16" height="18" viewBox="0 0 16 18" fill="none" xmlns="http://www.w3.org/2000/svg">
<path d="M7.5333 0.666016C5.39695 0.672109 3.34454 1.49844 1.79997 2.97435V1.49935C1.79997 1.27834 1.71217 1.06637 1.55589 0.910093C1.39961 0.753813 1.18765 0.666016 0.966634 0.666016C0.74562 0.666016 0.533659 0.753813 0.377378 0.910093C0.221098 1.06637 0.133301 1.27834 0.133301 1.49935V5.24935C0.133301 5.47036 0.221098 5.68232 0.377378 5.8386C0.533659 5.99488 0.74562 6.08268 0.966634 6.08268H4.71663C4.93765 6.08268 5.14961 5.99488 5.30589 5.8386C5.46217 5.68232 5.54997 5.47036 5.54997 5.24935C5.54997 5.02834 5.46217 4.81637 5.30589 4.66009C5.14961 4.50381 4.93765 4.41602 4.71663 4.41602H2.71663C3.47639 3.61352 4.42372 3.01248 5.47341 2.66696C6.52309 2.32144 7.64221 2.24228 8.73008 2.4366C9.81795 2.63092 10.8405 3.09262 11.7056 3.78017C12.5708 4.46773 13.2514 5.35956 13.6864 6.37546C14.1213 7.39135 14.2969 8.49944 14.1974 9.60003C14.0978 10.7006 13.7262 11.7592 13.116 12.6806C12.5058 13.6019 11.6761 14.3571 10.7016 14.8782C9.72714 15.3994 8.63838 15.6701 7.5333 15.666C7.31229 15.666 7.10033 15.7538 6.94405 15.9101C6.78777 16.0664 6.69997 16.2783 6.69997 16.4993C6.69997 16.7204 6.78777 16.9323 6.94405 17.0886C7.10033 17.2449 7.31229 17.3327 7.5333 17.3327C9.74344 17.3327 11.8631 16.4547 13.4259 14.8919C14.9887 13.3291 15.8666 11.2095 15.8666 8.99935C15.8666 6.78921 14.9887 4.6696 13.4259 3.10679C11.8631 1.54399 9.74344 0.666016 7.5333 0.666016ZM7.5333 5.66602C7.31229 5.66602 7.10033 5.75381 6.94405 5.91009C6.78777 6.06637 6.69997 6.27834 6.69997 6.49935V8.99935C6.69997 9.22036 6.78777 9.43232 6.94405 9.5886C7.10033 9.74489 7.31229 9.83268 7.5333 9.83268H9.19997C9.42098 9.83268 9.63294 9.74489 9.78922 9.5886C9.9455 9.43232 10.0333 9.22036 10.0333 8.99935C10.0333 8.77834 9.9455 8.56637 9.78922 8.41009C9.63294 8.25381 9.42098 8.16602 9.19997 8.16602H8.36663V6.49935C8.36663 6.27834 8.27884 6.06637 8.12256 5.91009C7.96628 5.75381 7.75431 5.66602 7.5333 5.66602Z" fill="black"/>
</svg> 