<svg width="560" height="400" viewBox="0 0 560 400" fill="none" xmlns="http://www.w3.org/2000/svg">
<g clip-path="url(#clip0_1040_4203)">
<g filter="url(#filter0_f_1040_4203)">
<path d="M97.0983 231.248C117.242 48.875 204.332 -91.1518 291.62 -81.5107C361.559 -73.7858 476.314 16.9601 416.696 161.518C405.845 187.83 397.326 213.252 371.432 241.462C262.885 359.718 239.839 387.301 212.195 444.506C194.826 480.447 165.946 551.44 138.67 574.476C71.8079 616.388 77.9695 404.434 97.0983 231.248Z" fill="url(#paint0_radial_1040_4203)"/>
</g>
<g filter="url(#filter1_d_1040_4203)">
<g clip-path="url(#clip1_1040_4203)">
<rect x="337.22" y="134" width="210" height="75" rx="12" transform="rotate(6.29227 337.22 134)" fill="#E6FFC8"/>
<rect x="359.322" y="152.534" width="162" height="43" rx="8" transform="rotate(6.29227 359.322 152.534)" fill="white"/>
<path d="M389.867 177.448C389.987 176.366 390.343 175.424 390.936 174.62C391.539 173.817 392.297 173.225 393.208 172.842C394.132 172.45 395.107 172.311 396.136 172.425C397.313 172.554 398.325 172.961 399.172 173.645C400.032 174.319 400.61 175.209 400.906 176.315L398.727 176.075C398.505 175.46 398.156 174.981 397.678 174.639C397.201 174.297 396.628 174.089 395.96 174.015C395.229 173.934 394.559 174.027 393.95 174.292C393.341 174.558 392.839 174.98 392.442 175.559C392.056 176.139 391.818 176.837 391.728 177.653C391.638 178.469 391.718 179.203 391.969 179.853C392.229 180.504 392.627 181.031 393.163 181.433C393.699 181.825 394.333 182.061 395.064 182.142C395.732 182.215 396.337 182.137 396.877 181.907C397.417 181.677 397.863 181.286 398.214 180.734L400.392 180.975C399.862 181.989 399.104 182.732 398.118 183.203C397.143 183.675 396.068 183.846 394.891 183.716C393.852 183.602 392.929 183.258 392.123 182.687C391.318 182.104 390.708 181.356 390.294 180.441C389.89 179.527 389.748 178.529 389.867 177.448ZM411.062 176.533L410.096 185.296L408.283 185.096L408.397 184.063C408.071 184.391 407.663 184.636 407.173 184.797C406.695 184.948 406.196 184.995 405.677 184.938C404.988 184.862 404.383 184.65 403.863 184.303C403.354 183.957 402.972 183.486 402.716 182.889C402.47 182.293 402.391 181.597 402.479 180.802L403.047 175.649L404.844 175.848L404.306 180.73C404.219 181.515 404.349 182.141 404.694 182.608C405.041 183.065 405.554 183.33 406.232 183.405C406.911 183.48 407.469 183.332 407.907 182.962C408.356 182.583 408.625 182 408.711 181.216L409.249 176.333L411.062 176.533ZM415.653 186.054C414.964 185.978 414.357 185.788 413.833 185.483C413.32 185.169 412.928 184.782 412.657 184.323C412.387 183.853 412.27 183.352 412.308 182.82L414.184 183.027C414.175 183.401 414.316 183.733 414.606 184.023C414.907 184.303 415.302 184.47 415.79 184.524C416.299 184.58 416.701 184.528 416.998 184.367C417.307 184.197 417.478 183.959 417.512 183.651C417.548 183.322 417.416 183.061 417.115 182.867C416.825 182.674 416.352 182.445 415.694 182.179C415.057 181.926 414.541 181.692 414.146 181.477C413.751 181.262 413.419 180.962 413.15 180.578C412.892 180.196 412.794 179.718 412.858 179.146C412.909 178.679 413.094 178.27 413.411 177.919C413.73 177.557 414.156 177.293 414.69 177.126C415.234 176.961 415.84 176.915 416.508 176.989C417.505 177.099 418.277 177.441 418.825 178.017C419.385 178.583 419.638 179.303 419.585 180.177L417.772 179.977C417.783 179.582 417.659 179.251 417.398 178.986C417.138 178.722 416.764 178.562 416.276 178.509C415.799 178.456 415.423 178.506 415.149 178.658C414.874 178.81 414.721 179.035 414.688 179.332C414.662 179.565 414.726 179.77 414.878 179.948C415.03 180.126 415.223 180.276 415.456 180.398C415.69 180.51 416.039 180.661 416.501 180.851C417.118 181.091 417.618 181.323 418.001 181.548C418.396 181.763 418.723 182.057 418.983 182.429C419.242 182.801 419.346 183.268 419.295 183.832C419.24 184.33 419.053 184.76 418.734 185.122C418.415 185.484 417.989 185.748 417.455 185.914C416.932 186.082 416.332 186.129 415.653 186.054ZM423.902 179.446L423.367 184.297C423.331 184.625 423.379 184.872 423.511 185.037C423.655 185.192 423.912 185.29 424.283 185.331L425.397 185.454L425.23 186.965L423.799 186.807C422.982 186.717 422.378 186.457 421.985 186.028C421.592 185.598 421.444 184.954 421.538 184.095L422.073 179.244L421.039 179.13L421.202 177.651L422.236 177.765L422.476 175.587L424.305 175.788L424.065 177.967L426.196 178.202L426.033 179.681L423.902 179.446ZM430.686 187.711C429.859 187.62 429.132 187.352 428.505 186.908C427.879 186.452 427.413 185.864 427.106 185.144C426.8 184.412 426.697 183.596 426.796 182.695C426.895 181.804 427.178 181.036 427.646 180.39C428.114 179.744 428.708 179.273 429.428 178.977C430.147 178.681 430.926 178.579 431.763 178.671C432.601 178.763 433.339 179.033 433.976 179.478C434.614 179.924 435.091 180.513 435.407 181.246C435.723 181.978 435.833 182.79 435.734 183.68C435.636 184.571 435.348 185.339 434.869 185.983C434.39 186.628 433.779 187.103 433.038 187.407C432.308 187.702 431.524 187.804 430.686 187.711ZM430.86 186.137C431.326 186.188 431.773 186.125 432.201 185.947C432.639 185.77 433.009 185.473 433.313 185.055C433.617 184.638 433.803 184.111 433.874 183.475C433.944 182.839 433.881 182.29 433.685 181.829C433.49 181.356 433.204 180.987 432.825 180.72C432.447 180.453 432.025 180.293 431.558 180.242C431.092 180.191 430.645 180.254 430.217 180.432C429.8 180.612 429.451 180.911 429.168 181.331C428.887 181.74 428.711 182.262 428.641 182.898C428.537 183.842 428.695 184.6 429.115 185.172C429.547 185.735 430.128 186.056 430.86 186.137ZM448.632 180.531C449.321 180.607 449.921 180.818 450.43 181.164C450.95 181.511 451.332 181.982 451.578 182.578C451.834 183.175 451.918 183.871 451.83 184.666L451.26 189.835L449.463 189.637L450.003 184.739C450.09 183.954 449.96 183.333 449.613 182.877C449.268 182.409 448.756 182.138 448.077 182.063C447.398 181.989 446.834 182.141 446.385 182.521C445.947 182.891 445.685 183.468 445.598 184.253L445.058 189.151L443.261 188.953L443.801 184.055C443.888 183.27 443.757 182.65 443.411 182.193C443.065 181.725 442.553 181.454 441.875 181.38C441.196 181.305 440.632 181.457 440.182 181.837C439.744 182.207 439.482 182.784 439.396 183.569L438.856 188.467L437.043 188.267L438.009 179.505L439.822 179.704L439.711 180.706C440.048 180.379 440.455 180.139 440.933 179.988C441.412 179.837 441.91 179.79 442.43 179.847C443.13 179.924 443.739 180.142 444.257 180.499C444.776 180.857 445.153 181.333 445.388 181.928C445.711 181.427 446.171 181.054 446.767 180.808C447.364 180.552 447.986 180.46 448.632 180.531ZM455.584 180.267C455.255 180.231 454.992 180.089 454.794 179.842C454.596 179.595 454.515 179.307 454.551 178.978C454.587 178.65 454.729 178.386 454.976 178.188C455.224 177.99 455.511 177.909 455.84 177.945C456.158 177.981 456.416 178.122 456.614 178.369C456.812 178.616 456.893 178.904 456.857 179.233C456.821 179.561 456.679 179.825 456.432 180.023C456.185 180.221 455.902 180.302 455.584 180.267ZM456.347 181.527L455.38 190.289L453.567 190.09L454.534 181.327L456.347 181.527ZM459.53 189.25L463.506 189.688L463.343 191.167L457.268 190.498L457.431 189.019L462.063 183.654L458.071 183.214L458.234 181.735L464.309 182.405L464.146 183.884L459.53 189.25ZM473.785 187.667C473.749 187.995 473.695 188.29 473.623 188.55L466.928 187.812C466.903 188.518 467.101 189.108 467.521 189.584C467.941 190.059 468.49 190.335 469.168 190.409C470.144 190.517 470.878 190.185 471.371 189.413L473.327 189.628C472.973 190.405 472.418 191.014 471.661 191.457C470.915 191.89 470.028 192.049 469 191.936C468.162 191.844 467.43 191.575 466.803 191.13C466.188 190.676 465.727 190.089 465.42 189.368C465.125 188.638 465.027 187.823 465.126 186.921C465.226 186.02 465.493 185.25 465.928 184.611C466.375 183.963 466.948 183.49 467.646 183.191C468.355 182.894 469.139 182.792 469.998 182.887C470.825 182.978 471.542 183.24 472.149 183.671C472.756 184.103 473.203 184.668 473.491 185.365C473.78 186.051 473.878 186.819 473.785 187.667ZM471.955 186.886C472.018 186.216 471.839 185.655 471.417 185.2C470.995 184.746 470.439 184.481 469.75 184.405C469.124 184.336 468.567 184.478 468.077 184.832C467.589 185.175 467.264 185.682 467.105 186.351L471.955 186.886ZM474.945 187.972C475.042 187.092 475.309 186.332 475.744 185.694C476.19 185.056 476.746 184.586 477.412 184.284C478.091 183.972 478.817 183.859 479.591 183.945C480.163 184.008 480.711 184.197 481.234 184.512C481.769 184.818 482.178 185.196 482.462 185.646L482.928 181.415L484.757 181.617L483.459 193.386L481.63 193.184L481.776 191.864C481.432 192.255 480.98 192.56 480.42 192.777C479.87 192.995 479.256 193.067 478.577 192.992C477.814 192.908 477.135 192.64 476.541 192.188C475.959 191.727 475.52 191.131 475.225 190.401C474.941 189.662 474.848 188.852 474.945 187.972ZM482.114 188.794C482.181 188.19 482.112 187.651 481.906 187.178C481.712 186.706 481.426 186.331 481.048 186.053C480.671 185.775 480.249 185.611 479.783 185.559C479.316 185.508 478.869 185.577 478.44 185.766C478.013 185.944 477.647 186.242 477.344 186.659C477.052 187.067 476.873 187.573 476.806 188.177C476.739 188.781 476.803 189.325 476.996 189.808C477.201 190.292 477.491 190.678 477.867 190.966C478.255 191.245 478.676 191.409 479.132 191.46C479.599 191.511 480.046 191.442 480.475 191.254C480.904 191.065 481.264 190.761 481.557 190.343C481.862 189.915 482.048 189.399 482.114 188.794Z" fill="black"/>
</g>
</g>
<g filter="url(#filter2_d_1040_4203)">
<g clip-path="url(#clip2_1040_4203)">
<rect x="144" y="211.117" width="210" height="75" rx="12" transform="rotate(-9.07336 144 211.117)" fill="#FFD0D1"/>
<g clip-path="url(#clip3_1040_4203)">
<rect x="170.223" y="223.132" width="162" height="43" rx="8" transform="rotate(-9.07336 170.223 223.132)" fill="white"/>
<path d="M205.338 233.605L207.091 244.586L205.29 244.874L203.537 233.893L205.338 233.605ZM212.436 234.659C213.12 234.55 213.754 234.594 214.336 234.793C214.93 234.99 215.423 235.343 215.818 235.853C216.213 236.362 216.473 237.012 216.599 237.802L217.419 242.937L215.634 243.222L214.857 238.356C214.732 237.576 214.442 237.012 213.987 236.664C213.53 236.304 212.964 236.179 212.29 236.286C211.616 236.394 211.113 236.691 210.78 237.176C210.456 237.649 210.356 238.275 210.48 239.055L211.257 243.921L209.456 244.209L208.066 235.503L209.867 235.215L210.026 236.211C210.264 235.805 210.593 235.466 211.014 235.194C211.446 234.92 211.919 234.742 212.436 234.659ZM222.899 242.207C222.215 242.317 221.579 242.294 220.993 242.139C220.415 241.972 219.935 241.703 219.552 241.332C219.167 240.951 218.922 240.499 218.816 239.975L220.681 239.678C220.771 240.041 220.995 240.324 221.351 240.527C221.716 240.717 222.141 240.773 222.626 240.696C223.131 240.615 223.506 240.458 223.749 240.225C224.002 239.979 224.104 239.704 224.055 239.398C224.003 239.072 223.806 238.855 223.465 238.747C223.134 238.638 222.617 238.542 221.912 238.46C221.231 238.386 220.671 238.297 220.233 238.194C219.795 238.091 219.396 237.89 219.035 237.591C218.685 237.291 218.464 236.856 218.373 236.287C218.299 235.824 218.369 235.381 218.582 234.958C218.794 234.524 219.135 234.156 219.605 233.854C220.086 233.551 220.658 233.346 221.322 233.24C222.312 233.082 223.147 233.208 223.828 233.617C224.518 234.015 224.953 234.642 225.134 235.499L223.332 235.787C223.239 235.402 223.031 235.117 222.709 234.93C222.388 234.744 221.985 234.69 221.501 234.767C221.027 234.843 220.678 234.99 220.453 235.21C220.229 235.429 220.141 235.686 220.188 235.981C220.225 236.213 220.34 236.394 220.534 236.525C220.728 236.657 220.953 236.75 221.211 236.806C221.466 236.852 221.842 236.905 222.338 236.966C222.997 237.034 223.541 237.125 223.97 237.241C224.407 237.344 224.801 237.54 225.149 237.83C225.498 238.12 225.722 238.543 225.822 239.1C225.901 239.595 225.835 240.059 225.623 240.493C225.411 240.926 225.071 241.294 224.6 241.596C224.141 241.896 223.574 242.1 222.899 242.207ZM228.772 233.509C229.014 233.059 229.376 232.656 229.859 232.298C230.342 231.94 230.915 231.708 231.578 231.602C232.337 231.481 233.057 231.56 233.739 231.84C234.43 232.108 235.008 232.55 235.474 233.167C235.94 233.784 236.243 234.53 236.382 235.404C236.522 236.278 236.468 237.092 236.221 237.844C235.972 238.586 235.563 239.202 234.993 239.693C234.432 240.171 233.773 240.471 233.014 240.592C232.351 240.698 231.74 240.661 231.182 240.48C230.622 240.288 230.146 240.019 229.756 239.67L230.619 245.074L228.818 245.362L226.766 232.516L228.568 232.229L228.772 233.509ZM234.549 235.697C234.454 235.096 234.245 234.601 233.923 234.209C233.61 233.805 233.23 233.526 232.784 233.37C232.347 233.202 231.897 233.155 231.433 233.229C230.98 233.302 230.567 233.487 230.193 233.784C229.83 234.08 229.557 234.469 229.375 234.951C229.203 235.433 229.166 235.973 229.261 236.574C229.357 237.174 229.563 237.681 229.877 238.096C230.201 238.498 230.581 238.783 231.018 238.95C231.466 239.117 231.916 239.163 232.369 239.091C232.833 239.017 233.246 238.832 233.609 238.537C233.982 238.229 234.253 237.829 234.423 237.337C234.603 236.844 234.645 236.297 234.549 235.697ZM238.207 229.507C237.88 229.559 237.589 229.492 237.332 229.306C237.076 229.12 236.921 228.864 236.869 228.537C236.817 228.211 236.884 227.919 237.07 227.663C237.256 227.406 237.512 227.252 237.838 227.2C238.154 227.149 238.441 227.217 238.697 227.403C238.954 227.589 239.108 227.845 239.16 228.172C239.212 228.498 239.145 228.79 238.96 229.046C238.774 229.303 238.523 229.456 238.207 229.507ZM239.276 230.519L240.666 239.224L238.865 239.512L237.475 230.806L239.276 230.519ZM243.644 231.117C243.836 230.633 244.129 230.235 244.522 229.924C244.924 229.6 245.426 229.391 246.026 229.295L246.324 231.159L245.865 231.232C245.16 231.345 244.651 231.61 244.34 232.027C244.039 232.442 243.959 233.092 244.1 233.977L244.832 238.559L243.031 238.847L241.64 230.141L243.442 229.853L243.644 231.117ZM247.793 233.582C247.653 232.708 247.709 231.905 247.959 231.174C248.22 230.441 248.632 229.84 249.194 229.372C249.766 228.892 250.431 228.591 251.189 228.47C251.874 228.361 252.491 228.403 253.04 228.596C253.598 228.777 254.062 229.043 254.431 229.395L254.23 228.131L256.047 227.84L257.437 236.546L255.62 236.836L255.413 235.541C255.173 236 254.812 236.409 254.329 236.767C253.846 237.125 253.267 237.358 252.593 237.465C251.845 237.585 251.13 237.505 250.448 237.225C249.765 236.934 249.184 236.476 248.706 235.85C248.237 235.212 247.932 234.456 247.793 233.582ZM254.923 232.476C254.828 231.875 254.618 231.374 254.294 230.972C253.982 230.568 253.606 230.282 253.169 230.115C252.732 229.947 252.282 229.9 251.818 229.974C251.355 230.048 250.941 230.233 250.578 230.528C250.213 230.814 249.94 231.198 249.757 231.68C249.584 232.151 249.545 232.686 249.641 233.287C249.737 233.887 249.942 234.394 250.257 234.809C250.582 235.221 250.964 235.517 251.403 235.695C251.851 235.861 252.301 235.908 252.754 235.836C253.218 235.762 253.631 235.577 253.994 235.281C254.358 234.986 254.625 234.597 254.797 234.116C254.977 233.623 255.019 233.076 254.923 232.476ZM260.748 228.596L261.518 233.415C261.57 233.742 261.682 233.967 261.853 234.091C262.033 234.203 262.307 234.229 262.675 234.17L263.781 233.994L264.021 235.495L262.599 235.722C261.788 235.851 261.136 235.761 260.644 235.451C260.152 235.14 259.837 234.559 259.701 233.706L258.931 228.887L257.904 229.051L257.67 227.581L258.697 227.417L258.351 225.253L260.168 224.962L260.514 227.127L262.631 226.789L262.866 228.258L260.748 228.596ZM265.023 225.224C264.697 225.276 264.405 225.209 264.149 225.024C263.892 224.838 263.738 224.581 263.686 224.255C263.633 223.928 263.7 223.637 263.886 223.38C264.072 223.124 264.328 222.969 264.655 222.917C264.971 222.867 265.257 222.935 265.514 223.12C265.77 223.306 265.924 223.563 265.977 223.889C266.029 224.216 265.962 224.507 265.776 224.764C265.59 225.02 265.339 225.174 265.023 225.224ZM266.092 226.236L267.482 234.942L265.681 235.23L264.291 226.524L266.092 226.236ZM273.646 234.103C272.824 234.235 272.052 234.169 271.33 233.906C270.606 233.633 270 233.19 269.513 232.576C269.025 231.952 268.709 231.192 268.566 230.297C268.425 229.412 268.494 228.596 268.775 227.849C269.055 227.102 269.503 226.491 270.118 226.014C270.734 225.538 271.457 225.234 272.289 225.101C273.121 224.968 273.904 225.032 274.637 225.293C275.37 225.554 275.986 225.996 276.485 226.618C276.984 227.24 277.304 227.994 277.446 228.879C277.587 229.764 277.512 230.58 277.221 231.329C276.93 232.077 276.468 232.697 275.833 233.187C275.207 233.665 274.478 233.971 273.646 234.103ZM273.396 232.539C273.86 232.465 274.274 232.286 274.639 232.001C275.014 231.714 275.293 231.329 275.475 230.846C275.657 230.363 275.698 229.806 275.597 229.174C275.496 228.542 275.29 228.029 274.979 227.636C274.666 227.233 274.292 226.952 273.856 226.795C273.421 226.638 272.971 226.596 272.508 226.67C272.044 226.744 271.63 226.923 271.265 227.209C270.911 227.492 270.653 227.873 270.492 228.353C270.329 228.822 270.298 229.372 270.399 230.004C270.549 230.942 270.902 231.631 271.458 232.071C272.023 232.499 272.669 232.655 273.396 232.539ZM282.902 223.406C283.587 223.297 284.22 223.341 284.803 223.54C285.396 223.737 285.89 224.09 286.285 224.599C286.679 225.109 286.94 225.759 287.066 226.549L287.886 231.684L286.1 231.969L285.323 227.102C285.199 226.323 284.909 225.759 284.454 225.41C283.997 225.051 283.431 224.925 282.757 225.033C282.083 225.141 281.579 225.437 281.246 225.922C280.922 226.396 280.822 227.022 280.947 227.801L281.724 232.668L279.923 232.955L278.532 224.25L280.334 223.962L280.493 224.957C280.73 224.552 281.06 224.213 281.481 223.941C281.912 223.667 282.386 223.488 282.902 223.406ZM288.881 227.02C288.742 226.146 288.797 225.343 289.048 224.612C289.309 223.879 289.721 223.278 290.283 222.81C290.855 222.33 291.519 222.03 292.278 221.909C292.962 221.799 293.579 221.841 294.129 222.034C294.687 222.215 295.151 222.481 295.52 222.833L295.318 221.569L297.135 221.279L298.526 229.984L296.709 230.275L296.502 228.979C296.262 229.439 295.9 229.847 295.417 230.205C294.935 230.563 294.356 230.796 293.682 230.904C292.934 231.023 292.219 230.943 291.537 230.663C290.853 230.372 290.273 229.914 289.795 229.289C289.325 228.651 289.021 227.894 288.881 227.02ZM296.012 225.914C295.916 225.313 295.707 224.812 295.383 224.41C295.07 224.006 294.695 223.721 294.258 223.553C293.821 223.385 293.37 223.338 292.907 223.412C292.443 223.486 292.03 223.671 291.667 223.967C291.302 224.252 291.028 224.636 290.846 225.119C290.673 225.589 290.634 226.125 290.73 226.725C290.826 227.325 291.031 227.833 291.346 228.247C291.671 228.659 292.053 228.955 292.492 229.133C292.94 229.299 293.39 229.346 293.843 229.274C294.306 229.2 294.72 229.015 295.083 228.719C295.446 228.424 295.714 228.035 295.885 227.554C296.066 227.061 296.108 226.514 296.012 225.914ZM300.825 217.627L302.693 229.319L300.891 229.607L299.024 217.915L300.825 217.627Z" fill="black"/>
</g>
</g>
</g>
<g filter="url(#filter3_d_1040_4203)">
<g clip-path="url(#clip4_1040_4203)">
<rect x="245.406" y="258" width="210" height="75" rx="12" transform="rotate(19.8003 245.406 258)" fill="#D7B8FF"/>
<g clip-path="url(#clip5_1040_4203)">
<rect x="262.567" y="281.184" width="162" height="43" rx="8" transform="rotate(19.8003 262.567 281.184)" fill="white"/>
<path d="M294.149 312.952C293.957 313.484 293.651 313.941 293.23 314.322C292.81 314.703 292.269 314.945 291.609 315.048C290.952 315.14 290.192 315.031 289.329 314.72L287.432 314.037L285.904 318.282L284.188 317.664L287.954 307.202L291.567 308.503C292.37 308.792 292.997 309.176 293.448 309.656C293.912 310.129 294.195 310.65 294.296 311.22C294.407 311.793 294.358 312.37 294.149 312.952ZM289.833 313.32C290.485 313.555 291.024 313.585 291.45 313.409C291.88 313.224 292.192 312.86 292.387 312.318C292.799 311.174 292.358 310.369 291.063 309.903L289.166 309.22L287.936 312.637L289.833 313.32ZM297.41 314.415C297.812 314.084 298.261 313.877 298.755 313.794C299.264 313.705 299.804 313.764 300.376 313.97L299.736 315.746L299.3 315.589C298.627 315.347 298.054 315.333 297.58 315.548C297.116 315.766 296.732 316.297 296.429 317.14L294.857 321.506L293.141 320.888L296.127 312.593L297.843 313.211L297.41 314.415ZM302.467 324.399C301.685 324.117 301.04 323.687 300.534 323.108C300.032 322.519 299.716 321.838 299.586 321.066C299.46 320.283 299.55 319.466 299.857 318.612C300.161 317.769 300.615 317.089 301.222 316.57C301.828 316.051 302.515 315.732 303.284 315.612C304.053 315.492 304.834 315.575 305.627 315.86C306.419 316.146 307.074 316.579 307.59 317.162C308.105 317.745 308.432 318.429 308.568 319.215C308.705 320.001 308.621 320.815 308.317 321.658C308.014 322.501 307.554 323.18 306.938 323.696C306.322 324.211 305.617 324.529 304.825 324.652C304.046 324.769 303.26 324.684 302.467 324.399ZM303.004 322.908C303.445 323.067 303.895 323.11 304.352 323.037C304.819 322.967 305.249 322.765 305.642 322.43C306.035 322.095 306.339 321.626 306.556 321.024C306.773 320.422 306.84 319.874 306.757 319.379C306.678 318.875 306.486 318.448 306.18 318.1C305.875 317.752 305.501 317.499 305.06 317.34C304.618 317.181 304.169 317.138 303.712 317.211C303.264 317.288 302.855 317.498 302.482 317.84C302.113 318.172 301.82 318.639 301.603 319.241C301.282 320.134 301.258 320.908 301.533 321.563C301.821 322.21 302.311 322.659 303.004 322.908ZM314.478 320.781L312.942 320.229L310.46 327.123L308.729 326.5L311.211 319.605L310.233 319.253L310.737 317.853L311.715 318.205L311.927 317.618C312.27 316.665 312.77 316.063 313.427 315.812C314.098 315.554 314.975 315.621 316.059 316.011L315.544 317.441C315.023 317.253 314.62 317.222 314.337 317.347C314.058 317.461 313.831 317.76 313.658 318.241L313.446 318.829L314.982 319.381L314.478 320.781ZM322.685 326.61C322.573 326.921 322.452 327.195 322.321 327.431L315.984 325.15C315.795 325.83 315.85 326.451 316.147 327.011C316.444 327.571 316.914 327.967 317.556 328.199C318.479 328.531 319.271 328.379 319.93 327.744L321.782 328.411C321.256 329.083 320.574 329.546 319.734 329.799C318.909 330.046 318.009 329.994 317.036 329.644C316.243 329.358 315.593 328.926 315.088 328.347C314.595 327.762 314.284 327.083 314.154 326.311C314.038 325.532 314.133 324.716 314.44 323.863C314.747 323.01 315.187 322.324 315.76 321.804C316.346 321.278 317.013 320.952 317.762 320.824C318.521 320.701 319.307 320.785 320.119 321.078C320.902 321.36 321.538 321.782 322.028 322.343C322.517 322.905 322.82 323.558 322.938 324.303C323.058 325.038 322.974 325.807 322.685 326.61ZM321.089 325.423C321.306 324.787 321.263 324.199 320.959 323.659C320.655 323.119 320.176 322.731 319.524 322.496C318.932 322.283 318.356 322.291 317.797 322.521C317.242 322.74 316.809 323.157 316.497 323.77L321.089 325.423ZM325.77 332.788C325.117 332.553 324.572 332.227 324.133 331.808C323.708 331.383 323.417 330.915 323.261 330.405C323.108 329.886 323.111 329.371 323.272 328.862L325.048 329.502C324.952 329.864 325.011 330.219 325.225 330.569C325.453 330.911 325.798 331.166 326.26 331.332C326.742 331.506 327.146 331.549 327.471 331.462C327.811 331.369 328.033 331.177 328.138 330.886C328.25 330.575 328.183 330.29 327.936 330.031C327.699 329.776 327.292 329.442 326.715 329.03C326.154 328.636 325.707 328.287 325.373 327.986C325.039 327.684 324.787 327.316 324.615 326.88C324.453 326.447 324.47 325.96 324.665 325.418C324.824 324.977 325.099 324.622 325.49 324.355C325.885 324.077 326.361 323.92 326.918 323.883C327.486 323.849 328.086 323.946 328.718 324.174C329.662 324.513 330.333 325.027 330.731 325.715C331.143 326.396 331.222 327.155 330.965 327.993L329.249 327.375C329.353 326.993 329.309 326.642 329.117 326.324C328.926 326.006 328.599 325.763 328.138 325.597C327.686 325.435 327.309 325.395 327.007 325.479C326.704 325.563 326.503 325.746 326.402 326.027C326.322 326.247 326.336 326.462 326.442 326.67C326.548 326.879 326.701 327.069 326.899 327.243C327.101 327.406 327.404 327.635 327.809 327.928C328.353 328.305 328.785 328.648 329.105 328.956C329.439 329.257 329.688 329.619 329.854 330.041C330.019 330.464 330.011 330.943 329.83 331.478C329.66 331.95 329.378 332.324 328.983 332.602C328.588 332.879 328.112 333.036 327.555 333.074C327.007 333.115 326.412 333.02 325.77 332.788ZM333.811 335.683C333.159 335.449 332.613 335.122 332.175 334.703C331.75 334.278 331.459 333.81 331.302 333.301C331.149 332.781 331.153 332.266 331.314 331.757L333.09 332.397C332.994 332.759 333.053 333.115 333.267 333.464C333.495 333.807 333.84 334.061 334.302 334.227C334.783 334.401 335.187 334.444 335.513 334.358C335.853 334.264 336.075 334.072 336.18 333.781C336.292 333.47 336.224 333.185 335.977 332.926C335.741 332.671 335.333 332.337 334.756 331.925C334.195 331.531 333.748 331.183 333.415 330.881C333.081 330.58 332.828 330.211 332.656 329.775C332.495 329.343 332.511 328.855 332.707 328.313C332.865 327.872 333.14 327.517 333.532 327.25C333.926 326.973 334.402 326.815 334.96 326.778C335.528 326.744 336.127 326.841 336.76 327.069C337.703 327.409 338.374 327.922 338.773 328.61C339.185 329.291 339.263 330.051 339.007 330.888L337.291 330.27C337.394 329.888 337.35 329.538 337.159 329.219C336.967 328.901 336.641 328.659 336.179 328.492C335.728 328.33 335.351 328.29 335.048 328.374C334.746 328.458 334.544 328.641 334.443 328.922C334.364 329.143 334.377 329.357 334.483 329.565C334.59 329.774 334.742 329.965 334.941 330.138C335.142 330.302 335.446 330.53 335.85 330.823C336.395 331.2 336.827 331.543 337.147 331.851C337.48 332.152 337.73 332.514 337.895 332.936C338.061 333.359 338.053 333.838 337.871 334.373C337.701 334.845 337.419 335.219 337.024 335.497C336.63 335.774 336.154 335.932 335.596 335.969C335.049 336.01 334.454 335.915 333.811 335.683ZM343.146 328.28C342.835 328.168 342.612 327.968 342.477 327.682C342.342 327.395 342.331 327.096 342.443 326.785C342.555 326.474 342.754 326.251 343.041 326.116C343.327 325.981 343.626 325.97 343.937 326.082C344.238 326.19 344.456 326.388 344.591 326.674C344.726 326.961 344.738 327.26 344.626 327.571C344.514 327.882 344.314 328.105 344.028 328.24C343.741 328.375 343.447 328.388 343.146 328.28ZM343.593 329.682L340.607 337.977L338.891 337.359L341.877 329.064L343.593 329.682ZM346.409 340.219C345.627 339.937 344.982 339.507 344.476 338.928C343.974 338.339 343.658 337.658 343.528 336.886C343.402 336.104 343.492 335.286 343.799 334.433C344.103 333.59 344.557 332.909 345.164 332.39C345.77 331.872 346.457 331.552 347.226 331.432C347.995 331.312 348.776 331.395 349.569 331.68C350.361 331.966 351.016 332.4 351.532 332.982C352.047 333.565 352.374 334.249 352.51 335.035C352.646 335.821 352.563 336.636 352.259 337.479C351.956 338.322 351.496 339.001 350.88 339.516C350.264 340.031 349.559 340.35 348.767 340.473C347.988 340.589 347.202 340.505 346.409 340.219ZM346.946 338.729C347.387 338.888 347.837 338.93 348.294 338.857C348.761 338.787 349.191 338.585 349.584 338.25C349.977 337.915 350.281 337.447 350.498 336.845C350.715 336.242 350.782 335.694 350.699 335.2C350.62 334.695 350.428 334.269 350.122 333.921C349.817 333.572 349.443 333.319 349.002 333.16C348.56 333.001 348.111 332.958 347.654 333.032C347.206 333.109 346.796 333.318 346.424 333.66C346.055 333.992 345.762 334.459 345.545 335.062C345.224 335.955 345.2 336.728 345.475 337.383C345.763 338.031 346.253 338.479 346.946 338.729ZM359.68 335.321C360.333 335.556 360.866 335.901 361.28 336.356C361.705 336.815 361.966 337.363 362.066 337.999C362.166 338.636 362.08 339.331 361.809 340.084L360.047 344.976L358.346 344.364L360.016 339.727C360.283 338.984 360.301 338.35 360.071 337.825C359.844 337.29 359.41 336.907 358.767 336.676C358.125 336.445 357.541 336.461 357.015 336.725C356.503 336.983 356.113 337.483 355.846 338.226L354.176 342.862L352.46 342.244L355.446 333.95L357.163 334.568L356.821 335.516C357.225 335.276 357.677 335.138 358.177 335.103C358.687 335.071 359.188 335.144 359.68 335.321ZM363.171 341.373C363.471 340.54 363.907 339.864 364.48 339.345C365.062 338.829 365.713 338.502 366.431 338.364C367.164 338.219 367.891 338.277 368.614 338.537C369.266 338.772 369.786 339.107 370.174 339.541C370.575 339.969 370.853 340.426 371.007 340.912L371.44 339.708L373.171 340.331L370.185 348.626L368.454 348.003L368.898 346.768C368.466 347.055 367.952 347.238 367.357 347.319C366.761 347.399 366.142 347.323 365.5 347.092C364.787 346.836 364.2 346.42 363.738 345.846C363.279 345.261 362.992 344.579 362.875 343.801C362.773 343.015 362.871 342.206 363.171 341.373ZM369.95 343.848C370.156 343.276 370.214 342.736 370.125 342.227C370.046 341.723 369.855 341.291 369.553 340.933C369.252 340.575 368.88 340.317 368.438 340.158C367.997 339.999 367.545 339.961 367.085 340.044C366.627 340.118 366.202 340.322 365.81 340.657C365.431 340.985 365.138 341.435 364.932 342.007C364.726 342.579 364.661 343.123 364.737 343.637C364.822 344.156 365.014 344.599 365.312 344.967C365.624 345.329 365.996 345.587 366.428 345.743C366.869 345.902 367.32 345.939 367.781 345.856C368.242 345.772 368.664 345.561 369.046 345.223C369.443 344.878 369.744 344.42 369.95 343.848ZM378.166 338.915L374.155 350.055L372.439 349.437L376.45 338.297L378.166 338.915Z" fill="black"/>
</g>
</g>
</g>
<g filter="url(#filter4_d_1040_4203)">
<g clip-path="url(#clip6_1040_4203)">
<rect x="-3" y="183.899" width="210" height="75" rx="12" transform="rotate(-22.3629 -3 183.899)" fill="#B6D2FF"/>
<g clip-path="url(#clip7_1040_4203)">
<rect x="25.2827" y="189.564" width="162" height="43" rx="8" transform="rotate(-22.3629 25.2827 189.564)" fill="white"/>
<path d="M71.6272 187.669L75.8581 197.953L74.1713 198.647L72.3207 194.149L67.4821 196.139L69.3328 200.638L67.6459 201.332L63.4151 191.048L65.1019 190.354L66.916 194.763L71.7545 192.773L69.9404 188.363L71.6272 187.669ZM82.108 185.849L85.4623 194.002L83.7755 194.696L83.3798 193.734C83.2514 194.179 83.0108 194.589 82.6579 194.965C82.3109 195.327 81.8957 195.607 81.4123 195.806C80.7711 196.07 80.1393 196.174 79.5167 196.119C78.9041 196.06 78.3422 195.829 77.8312 195.428C77.33 195.023 76.9273 194.451 76.6229 193.711L74.6505 188.917L76.3225 188.229L78.1914 192.772C78.4917 193.501 78.9056 193.989 79.4329 194.233C79.9561 194.468 80.5334 194.455 81.1648 194.195C81.7961 193.936 82.2151 193.538 82.4218 193.003C82.6343 192.455 82.5904 191.815 82.2901 191.085L80.4212 186.543L82.108 185.849ZM94.1483 180.739C94.7895 180.476 95.4164 180.373 96.0291 180.433C96.6516 180.488 97.2134 180.718 97.7146 181.123C98.2256 181.525 98.6333 182.095 98.9377 182.835L100.916 187.644L99.2441 188.332L97.3692 183.774C97.0688 183.044 96.6571 182.562 96.1338 182.327C95.6065 182.083 95.0271 182.091 94.3958 182.35C93.7645 182.61 93.3426 183.014 93.1301 183.563C92.9234 184.098 92.9702 184.731 93.2705 185.461L95.1454 190.018L93.4734 190.706L91.5985 186.148C91.2981 185.418 90.8863 184.936 90.3631 184.702C89.8358 184.457 89.2564 184.465 88.6251 184.725C87.9938 184.984 87.5719 185.389 87.3594 185.937C87.1526 186.472 87.1995 187.105 87.4998 187.835L89.3747 192.392L87.6879 193.086L84.3337 184.933L86.0205 184.239L86.404 185.171C86.5422 184.722 86.7849 184.317 87.1319 183.955C87.479 183.593 87.8942 183.312 88.3776 183.114C89.0286 182.846 89.6674 182.744 90.294 182.81C90.9206 182.875 91.4796 183.112 91.9709 183.521C92.0145 182.926 92.239 182.379 92.6441 181.877C93.0451 181.366 93.5465 180.987 94.1483 180.739ZM106.654 185.439C105.884 185.755 105.118 185.869 104.354 185.779C103.587 185.68 102.896 185.388 102.281 184.902C101.662 184.407 101.18 183.741 100.835 182.902C100.494 182.073 100.374 181.263 100.475 180.472C100.577 179.681 100.872 178.983 101.361 178.378C101.85 177.773 102.485 177.31 103.264 176.989C104.043 176.669 104.82 176.551 105.593 176.637C106.366 176.722 107.067 177.01 107.696 177.501C108.325 177.992 108.81 178.652 109.151 179.481C109.492 180.309 109.607 181.121 109.495 181.917C109.384 182.712 109.076 183.421 108.571 184.044C108.072 184.653 107.433 185.118 106.654 185.439ZM106.051 183.974C106.485 183.795 106.847 183.526 107.137 183.164C107.436 182.799 107.619 182.36 107.685 181.848C107.752 181.337 107.663 180.785 107.419 180.193C107.176 179.601 106.858 179.15 106.464 178.839C106.067 178.518 105.638 178.331 105.178 178.278C104.718 178.225 104.271 178.288 103.837 178.466C103.403 178.645 103.041 178.915 102.752 179.276C102.472 179.633 102.309 180.064 102.262 180.567C102.211 181.061 102.308 181.604 102.551 182.196C102.913 183.074 103.415 183.663 104.057 183.964C104.706 184.251 105.37 184.254 106.051 183.974ZM116.528 171.688L119.882 179.841L118.195 180.535L117.799 179.573C117.671 180.018 117.43 180.429 117.078 180.804C116.73 181.166 116.315 181.447 115.832 181.646C115.191 181.909 114.559 182.014 113.936 181.958C113.324 181.899 112.762 181.669 112.251 181.268C111.75 180.863 111.347 180.29 111.043 179.55L109.07 174.756L110.742 174.068L112.611 178.611C112.911 179.341 113.325 179.828 113.853 180.072C114.376 180.307 114.953 180.294 115.584 180.035C116.216 179.775 116.635 179.378 116.841 178.843C117.054 178.294 117.01 177.655 116.71 176.925L114.841 172.382L116.528 171.688ZM120.927 171.262C121.003 170.746 121.197 170.292 121.508 169.899C121.825 169.491 122.265 169.172 122.827 168.941L123.545 170.687L123.116 170.863C122.455 171.135 122.021 171.51 121.814 171.987C121.616 172.461 121.688 173.112 122.029 173.94L123.794 178.231L122.108 178.925L118.753 170.772L120.44 170.078L120.927 171.262ZM131.378 175.267C130.608 175.584 129.842 175.697 129.078 175.608C128.311 175.508 127.619 175.216 127.005 174.731C126.386 174.236 125.904 173.569 125.559 172.73C125.218 171.902 125.098 171.092 125.199 170.3C125.3 169.509 125.596 168.811 126.085 168.206C126.574 167.601 127.208 167.138 127.988 166.817C128.767 166.497 129.543 166.379 130.317 166.465C131.09 166.55 131.791 166.839 132.42 167.33C133.049 167.821 133.534 168.481 133.874 169.309C134.215 170.138 134.33 170.95 134.219 171.745C134.108 172.541 133.8 173.25 133.295 173.873C132.796 174.482 132.157 174.947 131.378 175.267ZM130.775 173.802C131.209 173.624 131.571 173.354 131.86 172.992C132.16 172.627 132.343 172.188 132.409 171.677C132.475 171.165 132.387 170.613 132.143 170.021C131.9 169.43 131.581 168.978 131.188 168.667C130.791 168.346 130.362 168.159 129.902 168.106C129.442 168.053 128.995 168.116 128.561 168.295C128.127 168.473 127.765 168.743 127.475 169.104C127.196 169.462 127.032 169.892 126.986 170.396C126.935 170.89 127.032 171.432 127.275 172.024C127.636 172.902 128.138 173.491 128.781 173.792C129.43 174.079 130.094 174.082 130.775 173.802ZM141.251 161.516L144.606 169.669L142.919 170.363L142.523 169.401C142.395 169.846 142.154 170.257 141.801 170.633C141.454 170.995 141.039 171.275 140.556 171.474C139.914 171.738 139.283 171.842 138.66 171.787C138.047 171.727 137.486 171.497 136.975 171.096C136.473 170.691 136.071 170.118 135.766 169.379L133.794 164.584L135.466 163.897L137.335 168.439C137.635 169.169 138.049 169.656 138.576 169.901C139.1 170.135 139.677 170.123 140.308 169.863C140.939 169.603 141.358 169.206 141.565 168.671C141.778 168.122 141.734 167.483 141.433 166.753L139.565 162.21L141.251 161.516ZM149.845 167.669C149.204 167.933 148.58 168.057 147.974 168.041C147.374 168.011 146.844 167.86 146.386 167.587C145.924 167.305 145.581 166.921 145.359 166.436L147.105 165.717C147.276 166.05 147.559 166.274 147.952 166.389C148.351 166.49 148.778 166.448 149.231 166.261C149.705 166.066 150.033 165.827 150.217 165.544C150.406 165.247 150.442 164.956 150.324 164.67C150.198 164.364 149.957 164.198 149.6 164.172C149.253 164.141 148.728 164.167 148.023 164.249C147.343 164.333 146.777 164.376 146.328 164.376C145.878 164.376 145.443 164.273 145.023 164.065C144.613 163.853 144.299 163.481 144.079 162.948C143.901 162.514 143.867 162.067 143.977 161.606C144.083 161.135 144.331 160.699 144.719 160.297C145.117 159.891 145.627 159.56 146.248 159.305C147.176 158.923 148.018 158.854 148.775 159.096C149.538 159.324 150.105 159.834 150.478 160.627L148.791 161.321C148.611 160.968 148.343 160.738 147.988 160.631C147.632 160.523 147.227 160.563 146.774 160.75C146.33 160.932 146.024 161.156 145.856 161.421C145.688 161.686 145.661 161.957 145.775 162.233C145.864 162.45 146.018 162.6 146.237 162.683C146.456 162.766 146.697 162.805 146.96 162.801C147.219 162.786 147.597 162.752 148.094 162.698C148.751 162.612 149.301 162.576 149.745 162.589C150.195 162.589 150.623 162.69 151.029 162.892C151.435 163.094 151.75 163.454 151.975 163.973C152.166 164.437 152.208 164.904 152.102 165.374C151.996 165.845 151.748 166.281 151.36 166.683C150.982 167.081 150.477 167.41 149.845 167.669Z" fill="black"/>
</g>
</g>
</g>
<g filter="url(#filter5_d_1040_4203)">
<rect x="142.801" y="36" width="282.754" height="94.4067" rx="15.112" transform="rotate(2.91508 142.801 36)" fill="#FFEEA1"/>
<rect x="171.806" y="60.7104" width="222.306" height="48" rx="10.0747" transform="rotate(2.91508 171.806 60.7104)" fill="white"/>
<path d="M256.119 82.1259L255.412 96.0079L253.135 95.8919L253.619 86.3843L248.901 95.6763L247.323 95.596L243.552 85.8716L243.068 95.3793L240.791 95.2634L241.498 81.3814L243.955 81.5065L248.274 92.6405L253.682 82.0018L256.119 82.1259ZM268.873 85.659L261.297 101.494L258.941 101.374L261.45 96.1351L257.667 85.0884L260.204 85.2176L262.873 93.7644L266.516 85.539L268.873 85.659ZM279.786 97.3892C278.854 97.3418 278.023 97.1393 277.294 96.7817C276.565 96.4108 276.003 95.9149 275.607 95.294C275.212 94.6731 275.034 93.9631 275.075 93.1642L277.512 93.2883C277.534 93.8902 277.742 94.3948 278.136 94.802C278.542 95.2098 279.125 95.4331 279.884 95.4717C280.669 95.5117 281.291 95.3565 281.75 95.006C282.209 94.6422 282.454 94.1607 282.484 93.5615C282.508 93.0954 282.387 92.7088 282.123 92.4016C281.871 92.0951 281.543 91.8514 281.139 91.6706C280.747 91.4905 280.197 91.2889 279.487 91.0659C278.594 90.7801 277.867 90.5027 277.307 90.2339C276.76 89.9524 276.301 89.5418 275.928 89.0022C275.555 88.4625 275.39 87.7599 275.434 86.8943C275.475 86.0954 275.71 85.4065 276.14 84.8276C276.57 84.2487 277.153 83.8178 277.888 83.5348C278.624 83.2518 279.464 83.1344 280.409 83.1826C281.754 83.251 282.836 83.6465 283.653 84.3691C284.485 85.0789 284.917 86.0222 284.951 87.1987L282.434 87.0706C282.42 86.5625 282.202 86.1175 281.781 85.7356C281.36 85.3537 280.79 85.1445 280.071 85.1078C279.419 85.0746 278.877 85.2139 278.448 85.5258C278.018 85.8377 277.787 86.3066 277.755 86.9324C277.734 87.3585 277.842 87.7179 278.081 88.0104C278.334 88.2903 278.656 88.5203 279.047 88.7004C279.438 88.8805 279.975 89.0815 280.658 89.3031C281.564 89.6029 282.297 89.8939 282.857 90.1761C283.43 90.4589 283.903 90.8768 284.275 91.4298C284.661 91.9702 284.832 92.6798 284.787 93.5586C284.751 94.2644 284.524 94.9204 284.106 95.5265C283.702 96.1334 283.123 96.6113 282.371 96.9602C281.633 97.2964 280.771 97.4394 279.786 97.3892ZM290.396 88.6175L290.086 94.7096C290.065 95.1224 290.143 95.4267 290.32 95.6227C290.511 95.8059 290.839 95.9094 291.305 95.9332L292.704 96.0044L292.607 97.9019L290.809 97.8104C289.784 97.7582 289.01 97.4785 288.489 96.9713C287.967 96.4641 287.734 95.6712 287.789 94.5926L288.099 88.5005L286.801 88.4344L286.895 86.5768L288.194 86.6429L288.333 83.9065L290.63 84.0234L290.491 86.7599L293.167 86.8962L293.073 88.7538L290.396 88.6175ZM305.173 87.5075L297.598 103.343L295.241 103.223L297.751 97.9836L293.968 86.9369L296.504 87.0661L299.173 95.6129L302.816 87.3875L305.173 87.5075ZM309.361 83.9359L308.608 98.7167L306.331 98.6008L307.084 83.8199L309.361 83.9359ZM321.979 93.6101C321.958 94.0229 321.912 94.3944 321.842 94.7246L313.433 94.2964C313.455 95.1786 313.745 95.901 314.304 96.4635C314.862 97.0259 315.568 97.3289 316.42 97.3723C317.645 97.4347 318.537 96.9661 319.095 95.9665L321.552 96.0916C321.167 97.0867 320.519 97.8881 319.607 98.4958C318.709 99.0909 317.614 99.3556 316.322 99.2898C315.271 99.2362 314.337 98.9551 313.522 98.4463C312.721 97.9248 312.102 97.2258 311.666 96.3492C311.244 95.4599 311.062 94.4493 311.119 93.3175C311.177 92.1856 311.454 91.2051 311.95 90.3759C312.46 89.5341 313.14 88.9012 313.989 88.4771C314.852 88.0538 315.823 87.8696 316.901 87.9245C317.94 87.9774 318.854 88.2509 319.643 88.745C320.432 89.2391 321.032 89.9105 321.443 90.7592C321.854 91.5945 322.033 92.5448 321.979 93.6101ZM319.638 92.77C319.668 91.9304 319.402 91.2427 318.842 90.7068C318.282 90.171 317.569 89.881 316.704 89.8369C315.918 89.7969 315.233 90.0157 314.648 90.4932C314.063 90.9575 313.696 91.613 313.546 92.4598L319.638 92.77Z" fill="black"/>
</g>
</g>
<defs>
<filter id="filter0_f_1040_4203" x="-115.803" y="-281.98" width="749.109" height="1061.82" filterUnits="userSpaceOnUse" color-interpolation-filters="sRGB">
<feFlood flood-opacity="0" result="BackgroundImageFix"/>
<feBlend mode="normal" in="SourceGraphic" in2="BackgroundImageFix" result="shape"/>
<feGaussianBlur stdDeviation="100" result="effect1_foregroundBlur_1040_4203"/>
</filter>
<filter id="filter1_d_1040_4203" x="319" y="128" width="236.955" height="117.564" filterUnits="userSpaceOnUse" color-interpolation-filters="sRGB">
<feFlood flood-opacity="0" result="BackgroundImageFix"/>
<feColorMatrix in="SourceAlpha" type="matrix" values="0 0 0 0 0 0 0 0 0 0 0 0 0 0 0 0 0 0 127 0" result="hardAlpha"/>
<feOffset dy="4"/>
<feGaussianBlur stdDeviation="5"/>
<feComposite in2="hardAlpha" operator="out"/>
<feColorMatrix type="matrix" values="0 0 0 0 0 0 0 0 0 0 0 0 0 0 0 0 0 0 0.15 0"/>
<feBlend mode="normal" in2="BackgroundImageFix" result="effect1_dropShadow_1040_4203"/>
<feBlend mode="normal" in="SourceGraphic" in2="effect1_dropShadow_1040_4203" result="shape"/>
</filter>
<filter id="filter2_d_1040_4203" x="134" y="172" width="239.2" height="127.178" filterUnits="userSpaceOnUse" color-interpolation-filters="sRGB">
<feFlood flood-opacity="0" result="BackgroundImageFix"/>
<feColorMatrix in="SourceAlpha" type="matrix" values="0 0 0 0 0 0 0 0 0 0 0 0 0 0 0 0 0 0 127 0" result="hardAlpha"/>
<feOffset dy="4"/>
<feGaussianBlur stdDeviation="5"/>
<feComposite in2="hardAlpha" operator="out"/>
<feColorMatrix type="matrix" values="0 0 0 0 0 0 0 0 0 0 0 0 0 0 0 0 0 0 0.15 0"/>
<feBlend mode="normal" in2="BackgroundImageFix" result="effect1_dropShadow_1040_4203"/>
<feBlend mode="normal" in="SourceGraphic" in2="effect1_dropShadow_1040_4203" result="shape"/>
</filter>
<filter id="filter3_d_1040_4203" x="210" y="252" width="242.99" height="161.702" filterUnits="userSpaceOnUse" color-interpolation-filters="sRGB">
<feFlood flood-opacity="0" result="BackgroundImageFix"/>
<feColorMatrix in="SourceAlpha" type="matrix" values="0 0 0 0 0 0 0 0 0 0 0 0 0 0 0 0 0 0 127 0" result="hardAlpha"/>
<feOffset dy="4"/>
<feGaussianBlur stdDeviation="5"/>
<feComposite in2="hardAlpha" operator="out"/>
<feColorMatrix type="matrix" values="0 0 0 0 0 0 0 0 0 0 0 0 0 0 0 0 0 0 0.15 0"/>
<feBlend mode="normal" in2="BackgroundImageFix" result="effect1_dropShadow_1040_4203"/>
<feBlend mode="normal" in="SourceGraphic" in2="effect1_dropShadow_1040_4203" result="shape"/>
</filter>
<filter id="filter4_d_1040_4203" x="-13" y="98" width="242.742" height="169.259" filterUnits="userSpaceOnUse" color-interpolation-filters="sRGB">
<feFlood flood-opacity="0" result="BackgroundImageFix"/>
<feColorMatrix in="SourceAlpha" type="matrix" values="0 0 0 0 0 0 0 0 0 0 0 0 0 0 0 0 0 0 127 0" result="hardAlpha"/>
<feOffset dy="4"/>
<feGaussianBlur stdDeviation="5"/>
<feComposite in2="hardAlpha" operator="out"/>
<feColorMatrix type="matrix" values="0 0 0 0 0 0 0 0 0 0 0 0 0 0 0 0 0 0 0.15 0"/>
<feBlend mode="normal" in2="BackgroundImageFix" result="effect1_dropShadow_1040_4203"/>
<feBlend mode="normal" in="SourceGraphic" in2="effect1_dropShadow_1040_4203" result="shape"/>
</filter>
<filter id="filter5_d_1040_4203" x="125.407" y="28.444" width="312.376" height="133.851" filterUnits="userSpaceOnUse" color-interpolation-filters="sRGB">
<feFlood flood-opacity="0" result="BackgroundImageFix"/>
<feColorMatrix in="SourceAlpha" type="matrix" values="0 0 0 0 0 0 0 0 0 0 0 0 0 0 0 0 0 0 127 0" result="hardAlpha"/>
<feOffset dy="5.03734"/>
<feGaussianBlur stdDeviation="6.29668"/>
<feComposite in2="hardAlpha" operator="out"/>
<feColorMatrix type="matrix" values="0 0 0 0 0 0 0 0 0 0 0 0 0 0 0 0 0 0 0.15 0"/>
<feBlend mode="normal" in2="BackgroundImageFix" result="effect1_dropShadow_1040_4203"/>
<feBlend mode="normal" in="SourceGraphic" in2="effect1_dropShadow_1040_4203" result="shape"/>
</filter>
<radialGradient id="paint0_radial_1040_4203" cx="0" cy="0" r="1" gradientTransform="matrix(-189.375 382.372 -806.12 -400.849 293.74 77.5284)" gradientUnits="userSpaceOnUse">
<stop stop-color="#448AFF" stop-opacity="0.8"/>
<stop offset="1" stop-color="#FF999C" stop-opacity="0.8"/>
</radialGradient>
<clipPath id="clip0_1040_4203">
<rect width="560" height="400" rx="12" fill="white"/>
</clipPath>
<clipPath id="clip1_1040_4203">
<rect x="337.22" y="134" width="210" height="75" rx="12" transform="rotate(6.29227 337.22 134)" fill="white"/>
</clipPath>
<clipPath id="clip2_1040_4203">
<rect x="144" y="211.117" width="210" height="75" rx="12" transform="rotate(-9.07336 144 211.117)" fill="white"/>
</clipPath>
<clipPath id="clip3_1040_4203">
<rect x="170.223" y="223.132" width="162" height="43" rx="8" transform="rotate(-9.07336 170.223 223.132)" fill="white"/>
</clipPath>
<clipPath id="clip4_1040_4203">
<rect x="245.406" y="258" width="210" height="75" rx="12" transform="rotate(19.8003 245.406 258)" fill="white"/>
</clipPath>
<clipPath id="clip5_1040_4203">
<rect x="262.567" y="281.184" width="162" height="43" rx="8" transform="rotate(19.8003 262.567 281.184)" fill="white"/>
</clipPath>
<clipPath id="clip6_1040_4203">
<rect x="-3" y="183.899" width="210" height="75" rx="12" transform="rotate(-22.3629 -3 183.899)" fill="white"/>
</clipPath>
<clipPath id="clip7_1040_4203">
<rect x="25.2827" y="189.564" width="162" height="43" rx="8" transform="rotate(-22.3629 25.2827 189.564)" fill="white"/>
</clipPath>
</defs>
</svg>
